<mxfile host="app.diagrams.net" modified="2021-08-28T01:11:48.121Z" agent="5.0 (Windows NT 10.0; WOW64) AppleWebKit/537.36 (KHTML, like Gecko) Chrome/70.0.3538.25 Safari/537.36 Core/1.70.3870.400 QQBrowser/10.8.4405.400" etag="ZFoO3p9Pny9WglSV9XMS" version="14.9.9" type="github" pages="4">
  <diagram id="99x1Geg5ozmA8ZGy7n10" name="Page-1">
    <mxGraphModel dx="1038" dy="565" grid="1" gridSize="10" guides="1" tooltips="1" connect="1" arrows="1" fold="1" page="1" pageScale="1" pageWidth="827" pageHeight="1169" math="0" shadow="0">
      <root>
        <mxCell id="0" />
        <mxCell id="1" parent="0" />
        <mxCell id="4b1Iy3w-y9_Fl1tEP3De-1" value="1" style="rounded=0;whiteSpace=wrap;html=1;" vertex="1" parent="1">
          <mxGeometry x="420" y="40" width="40" height="40" as="geometry" />
        </mxCell>
        <mxCell id="4b1Iy3w-y9_Fl1tEP3De-2" value="13" style="rounded=0;whiteSpace=wrap;html=1;" vertex="1" parent="1">
          <mxGeometry x="460" y="40" width="40" height="40" as="geometry" />
        </mxCell>
        <mxCell id="4b1Iy3w-y9_Fl1tEP3De-3" value="1" style="rounded=0;whiteSpace=wrap;html=1;" vertex="1" parent="1">
          <mxGeometry x="230" y="120" width="40" height="40" as="geometry" />
        </mxCell>
        <mxCell id="4b1Iy3w-y9_Fl1tEP3De-4" value="7" style="rounded=0;whiteSpace=wrap;html=1;" vertex="1" parent="1">
          <mxGeometry x="270" y="120" width="40" height="40" as="geometry" />
        </mxCell>
        <mxCell id="4b1Iy3w-y9_Fl1tEP3De-5" value="8" style="rounded=0;whiteSpace=wrap;html=1;" vertex="1" parent="1">
          <mxGeometry x="610" y="120" width="40" height="40" as="geometry" />
        </mxCell>
        <mxCell id="4b1Iy3w-y9_Fl1tEP3De-6" value="13" style="rounded=0;whiteSpace=wrap;html=1;" vertex="1" parent="1">
          <mxGeometry x="650" y="120" width="40" height="40" as="geometry" />
        </mxCell>
        <mxCell id="4b1Iy3w-y9_Fl1tEP3De-7" value="1" style="rounded=0;whiteSpace=wrap;html=1;" vertex="1" parent="1">
          <mxGeometry x="110" y="200" width="40" height="40" as="geometry" />
        </mxCell>
        <mxCell id="4b1Iy3w-y9_Fl1tEP3De-8" value="4" style="rounded=0;whiteSpace=wrap;html=1;" vertex="1" parent="1">
          <mxGeometry x="150" y="200" width="40" height="40" as="geometry" />
        </mxCell>
        <mxCell id="4b1Iy3w-y9_Fl1tEP3De-9" value="5" style="rounded=0;whiteSpace=wrap;html=1;" vertex="1" parent="1">
          <mxGeometry x="340" y="200" width="40" height="40" as="geometry" />
        </mxCell>
        <mxCell id="4b1Iy3w-y9_Fl1tEP3De-10" value="7" style="rounded=0;whiteSpace=wrap;html=1;" vertex="1" parent="1">
          <mxGeometry x="380" y="200" width="40" height="40" as="geometry" />
        </mxCell>
        <mxCell id="4b1Iy3w-y9_Fl1tEP3De-11" value="1" style="rounded=0;whiteSpace=wrap;html=1;" vertex="1" parent="1">
          <mxGeometry x="50" y="280" width="40" height="40" as="geometry" />
        </mxCell>
        <mxCell id="4b1Iy3w-y9_Fl1tEP3De-12" value="2" style="rounded=0;whiteSpace=wrap;html=1;" vertex="1" parent="1">
          <mxGeometry x="90" y="280" width="40" height="40" as="geometry" />
        </mxCell>
        <mxCell id="4b1Iy3w-y9_Fl1tEP3De-13" value="3" style="rounded=0;whiteSpace=wrap;html=1;" vertex="1" parent="1">
          <mxGeometry x="170" y="280" width="40" height="40" as="geometry" />
        </mxCell>
        <mxCell id="4b1Iy3w-y9_Fl1tEP3De-14" value="4" style="rounded=0;whiteSpace=wrap;html=1;" vertex="1" parent="1">
          <mxGeometry x="210" y="280" width="40" height="40" as="geometry" />
        </mxCell>
        <mxCell id="4b1Iy3w-y9_Fl1tEP3De-15" value="1" style="rounded=0;whiteSpace=wrap;html=1;" vertex="1" parent="1">
          <mxGeometry x="40" y="360" width="40" height="40" as="geometry" />
        </mxCell>
        <mxCell id="4b1Iy3w-y9_Fl1tEP3De-16" value="2" style="rounded=0;whiteSpace=wrap;html=1;" vertex="1" parent="1">
          <mxGeometry x="100" y="360" width="40" height="40" as="geometry" />
        </mxCell>
        <mxCell id="4b1Iy3w-y9_Fl1tEP3De-17" value="3" style="rounded=0;whiteSpace=wrap;html=1;" vertex="1" parent="1">
          <mxGeometry x="160" y="360" width="40" height="40" as="geometry" />
        </mxCell>
        <mxCell id="4b1Iy3w-y9_Fl1tEP3De-18" value="4" style="rounded=0;whiteSpace=wrap;html=1;" vertex="1" parent="1">
          <mxGeometry x="220" y="360" width="40" height="40" as="geometry" />
        </mxCell>
        <mxCell id="4b1Iy3w-y9_Fl1tEP3De-19" value="5" style="rounded=0;whiteSpace=wrap;html=1;" vertex="1" parent="1">
          <mxGeometry x="280" y="360" width="40" height="40" as="geometry" />
        </mxCell>
        <mxCell id="4b1Iy3w-y9_Fl1tEP3De-20" value="6" style="rounded=0;whiteSpace=wrap;html=1;" vertex="1" parent="1">
          <mxGeometry x="340" y="360" width="40" height="40" as="geometry" />
        </mxCell>
        <mxCell id="4b1Iy3w-y9_Fl1tEP3De-21" value="5" style="rounded=0;whiteSpace=wrap;html=1;" vertex="1" parent="1">
          <mxGeometry x="290" y="280" width="40" height="40" as="geometry" />
        </mxCell>
        <mxCell id="4b1Iy3w-y9_Fl1tEP3De-22" value="6" style="rounded=0;whiteSpace=wrap;html=1;" vertex="1" parent="1">
          <mxGeometry x="330" y="280" width="40" height="40" as="geometry" />
        </mxCell>
        <mxCell id="4b1Iy3w-y9_Fl1tEP3De-23" value="7" style="rounded=0;whiteSpace=wrap;html=1;" vertex="1" parent="1">
          <mxGeometry x="400" y="280" width="40" height="40" as="geometry" />
        </mxCell>
        <mxCell id="4b1Iy3w-y9_Fl1tEP3De-24" value="8" style="rounded=0;whiteSpace=wrap;html=1;" vertex="1" parent="1">
          <mxGeometry x="460" y="360" width="40" height="40" as="geometry" />
        </mxCell>
        <mxCell id="4b1Iy3w-y9_Fl1tEP3De-25" value="9" style="rounded=0;whiteSpace=wrap;html=1;" vertex="1" parent="1">
          <mxGeometry x="520" y="360" width="40" height="40" as="geometry" />
        </mxCell>
        <mxCell id="4b1Iy3w-y9_Fl1tEP3De-26" value="10" style="rounded=0;whiteSpace=wrap;html=1;" vertex="1" parent="1">
          <mxGeometry x="580" y="280" width="40" height="40" as="geometry" />
        </mxCell>
        <mxCell id="4b1Iy3w-y9_Fl1tEP3De-27" value="11" style="rounded=0;whiteSpace=wrap;html=1;" vertex="1" parent="1">
          <mxGeometry x="640" y="360" width="40" height="40" as="geometry" />
        </mxCell>
        <mxCell id="4b1Iy3w-y9_Fl1tEP3De-28" value="12" style="rounded=0;whiteSpace=wrap;html=1;" vertex="1" parent="1">
          <mxGeometry x="700" y="360" width="40" height="40" as="geometry" />
        </mxCell>
        <mxCell id="4b1Iy3w-y9_Fl1tEP3De-29" value="13" style="rounded=0;whiteSpace=wrap;html=1;" vertex="1" parent="1">
          <mxGeometry x="760" y="280" width="40" height="40" as="geometry" />
        </mxCell>
        <mxCell id="4b1Iy3w-y9_Fl1tEP3De-30" value="8" style="rounded=0;whiteSpace=wrap;html=1;" vertex="1" parent="1">
          <mxGeometry x="470" y="280" width="40" height="40" as="geometry" />
        </mxCell>
        <mxCell id="4b1Iy3w-y9_Fl1tEP3De-31" value="9" style="rounded=0;whiteSpace=wrap;html=1;" vertex="1" parent="1">
          <mxGeometry x="510" y="280" width="40" height="40" as="geometry" />
        </mxCell>
        <mxCell id="4b1Iy3w-y9_Fl1tEP3De-32" value="11" style="rounded=0;whiteSpace=wrap;html=1;" vertex="1" parent="1">
          <mxGeometry x="650" y="280" width="40" height="40" as="geometry" />
        </mxCell>
        <mxCell id="4b1Iy3w-y9_Fl1tEP3De-33" value="12" style="rounded=0;whiteSpace=wrap;html=1;" vertex="1" parent="1">
          <mxGeometry x="690" y="280" width="40" height="40" as="geometry" />
        </mxCell>
        <mxCell id="4b1Iy3w-y9_Fl1tEP3De-34" value="8" style="rounded=0;whiteSpace=wrap;html=1;" vertex="1" parent="1">
          <mxGeometry x="520" y="200" width="40" height="40" as="geometry" />
        </mxCell>
        <mxCell id="4b1Iy3w-y9_Fl1tEP3De-35" value="10" style="rounded=0;whiteSpace=wrap;html=1;" vertex="1" parent="1">
          <mxGeometry x="560" y="200" width="40" height="40" as="geometry" />
        </mxCell>
        <mxCell id="4b1Iy3w-y9_Fl1tEP3De-36" value="11" style="rounded=0;whiteSpace=wrap;html=1;" vertex="1" parent="1">
          <mxGeometry x="700" y="200" width="40" height="40" as="geometry" />
        </mxCell>
        <mxCell id="4b1Iy3w-y9_Fl1tEP3De-37" value="13" style="rounded=0;whiteSpace=wrap;html=1;" vertex="1" parent="1">
          <mxGeometry x="740" y="200" width="40" height="40" as="geometry" />
        </mxCell>
        <mxCell id="4b1Iy3w-y9_Fl1tEP3De-38" value="" style="endArrow=classic;html=1;exitX=0.5;exitY=1;exitDx=0;exitDy=0;entryX=0;entryY=0;entryDx=0;entryDy=0;" edge="1" parent="1" source="4b1Iy3w-y9_Fl1tEP3De-1" target="4b1Iy3w-y9_Fl1tEP3De-4">
          <mxGeometry width="50" height="50" relative="1" as="geometry">
            <mxPoint x="450" y="230" as="sourcePoint" />
            <mxPoint x="500" y="180" as="targetPoint" />
          </mxGeometry>
        </mxCell>
        <mxCell id="4b1Iy3w-y9_Fl1tEP3De-39" value="" style="endArrow=classic;html=1;exitX=0.5;exitY=1;exitDx=0;exitDy=0;entryX=1;entryY=0;entryDx=0;entryDy=0;" edge="1" parent="1" source="4b1Iy3w-y9_Fl1tEP3De-2" target="4b1Iy3w-y9_Fl1tEP3De-5">
          <mxGeometry width="50" height="50" relative="1" as="geometry">
            <mxPoint x="450" y="230" as="sourcePoint" />
            <mxPoint x="500" y="180" as="targetPoint" />
          </mxGeometry>
        </mxCell>
        <mxCell id="4b1Iy3w-y9_Fl1tEP3De-40" value="" style="endArrow=classic;html=1;entryX=0;entryY=0;entryDx=0;entryDy=0;" edge="1" parent="1" target="4b1Iy3w-y9_Fl1tEP3De-8">
          <mxGeometry width="50" height="50" relative="1" as="geometry">
            <mxPoint x="250" y="160" as="sourcePoint" />
            <mxPoint x="500" y="180" as="targetPoint" />
          </mxGeometry>
        </mxCell>
        <mxCell id="4b1Iy3w-y9_Fl1tEP3De-41" value="" style="endArrow=classic;html=1;exitX=0.5;exitY=1;exitDx=0;exitDy=0;entryX=1;entryY=0;entryDx=0;entryDy=0;" edge="1" parent="1" source="4b1Iy3w-y9_Fl1tEP3De-4" target="4b1Iy3w-y9_Fl1tEP3De-9">
          <mxGeometry width="50" height="50" relative="1" as="geometry">
            <mxPoint x="450" y="230" as="sourcePoint" />
            <mxPoint x="500" y="180" as="targetPoint" />
          </mxGeometry>
        </mxCell>
        <mxCell id="4b1Iy3w-y9_Fl1tEP3De-42" value="" style="endArrow=classic;html=1;exitX=0.5;exitY=1;exitDx=0;exitDy=0;entryX=0;entryY=0;entryDx=0;entryDy=0;" edge="1" parent="1" source="4b1Iy3w-y9_Fl1tEP3De-5" target="4b1Iy3w-y9_Fl1tEP3De-35">
          <mxGeometry width="50" height="50" relative="1" as="geometry">
            <mxPoint x="450" y="230" as="sourcePoint" />
            <mxPoint x="500" y="180" as="targetPoint" />
          </mxGeometry>
        </mxCell>
        <mxCell id="4b1Iy3w-y9_Fl1tEP3De-43" value="" style="endArrow=classic;html=1;exitX=0.5;exitY=1;exitDx=0;exitDy=0;entryX=1;entryY=0;entryDx=0;entryDy=0;" edge="1" parent="1" source="4b1Iy3w-y9_Fl1tEP3De-6" target="4b1Iy3w-y9_Fl1tEP3De-36">
          <mxGeometry width="50" height="50" relative="1" as="geometry">
            <mxPoint x="450" y="230" as="sourcePoint" />
            <mxPoint x="500" y="180" as="targetPoint" />
          </mxGeometry>
        </mxCell>
        <mxCell id="4b1Iy3w-y9_Fl1tEP3De-44" value="" style="endArrow=classic;html=1;entryX=1;entryY=0;entryDx=0;entryDy=0;" edge="1" parent="1" target="4b1Iy3w-y9_Fl1tEP3De-11">
          <mxGeometry width="50" height="50" relative="1" as="geometry">
            <mxPoint x="130" y="240" as="sourcePoint" />
            <mxPoint x="500" y="180" as="targetPoint" />
          </mxGeometry>
        </mxCell>
        <mxCell id="4b1Iy3w-y9_Fl1tEP3De-45" value="" style="endArrow=classic;html=1;exitX=0.5;exitY=1;exitDx=0;exitDy=0;entryX=0;entryY=0;entryDx=0;entryDy=0;" edge="1" parent="1" source="4b1Iy3w-y9_Fl1tEP3De-8" target="4b1Iy3w-y9_Fl1tEP3De-14">
          <mxGeometry width="50" height="50" relative="1" as="geometry">
            <mxPoint x="450" y="230" as="sourcePoint" />
            <mxPoint x="500" y="180" as="targetPoint" />
          </mxGeometry>
        </mxCell>
        <mxCell id="4b1Iy3w-y9_Fl1tEP3De-46" value="" style="endArrow=classic;html=1;exitX=0.5;exitY=1;exitDx=0;exitDy=0;entryX=0.5;entryY=0;entryDx=0;entryDy=0;" edge="1" parent="1" source="4b1Iy3w-y9_Fl1tEP3De-9" target="4b1Iy3w-y9_Fl1tEP3De-21">
          <mxGeometry width="50" height="50" relative="1" as="geometry">
            <mxPoint x="450" y="230" as="sourcePoint" />
            <mxPoint x="500" y="180" as="targetPoint" />
          </mxGeometry>
        </mxCell>
        <mxCell id="4b1Iy3w-y9_Fl1tEP3De-47" value="" style="endArrow=classic;html=1;exitX=0.5;exitY=1;exitDx=0;exitDy=0;entryX=0.5;entryY=0;entryDx=0;entryDy=0;" edge="1" parent="1" source="4b1Iy3w-y9_Fl1tEP3De-10" target="4b1Iy3w-y9_Fl1tEP3De-23">
          <mxGeometry width="50" height="50" relative="1" as="geometry">
            <mxPoint x="450" y="230" as="sourcePoint" />
            <mxPoint x="500" y="180" as="targetPoint" />
          </mxGeometry>
        </mxCell>
        <mxCell id="4b1Iy3w-y9_Fl1tEP3De-48" value="" style="endArrow=classic;html=1;exitX=0.5;exitY=1;exitDx=0;exitDy=0;entryX=1;entryY=0;entryDx=0;entryDy=0;" edge="1" parent="1" source="4b1Iy3w-y9_Fl1tEP3De-34" target="4b1Iy3w-y9_Fl1tEP3De-30">
          <mxGeometry width="50" height="50" relative="1" as="geometry">
            <mxPoint x="450" y="230" as="sourcePoint" />
            <mxPoint x="500" y="180" as="targetPoint" />
          </mxGeometry>
        </mxCell>
        <mxCell id="4b1Iy3w-y9_Fl1tEP3De-49" value="" style="endArrow=classic;html=1;exitX=0.5;exitY=1;exitDx=0;exitDy=0;entryX=0.5;entryY=0;entryDx=0;entryDy=0;" edge="1" parent="1" source="4b1Iy3w-y9_Fl1tEP3De-35" target="4b1Iy3w-y9_Fl1tEP3De-26">
          <mxGeometry width="50" height="50" relative="1" as="geometry">
            <mxPoint x="450" y="230" as="sourcePoint" />
            <mxPoint x="500" y="180" as="targetPoint" />
          </mxGeometry>
        </mxCell>
        <mxCell id="4b1Iy3w-y9_Fl1tEP3De-50" value="" style="endArrow=classic;html=1;exitX=0.5;exitY=1;exitDx=0;exitDy=0;entryX=0;entryY=0;entryDx=0;entryDy=0;" edge="1" parent="1" source="4b1Iy3w-y9_Fl1tEP3De-36" target="4b1Iy3w-y9_Fl1tEP3De-33">
          <mxGeometry width="50" height="50" relative="1" as="geometry">
            <mxPoint x="450" y="230" as="sourcePoint" />
            <mxPoint x="500" y="180" as="targetPoint" />
          </mxGeometry>
        </mxCell>
        <mxCell id="4b1Iy3w-y9_Fl1tEP3De-51" value="" style="endArrow=classic;html=1;exitX=0.5;exitY=1;exitDx=0;exitDy=0;entryX=0.5;entryY=0;entryDx=0;entryDy=0;" edge="1" parent="1" source="4b1Iy3w-y9_Fl1tEP3De-37" target="4b1Iy3w-y9_Fl1tEP3De-29">
          <mxGeometry width="50" height="50" relative="1" as="geometry">
            <mxPoint x="450" y="230" as="sourcePoint" />
            <mxPoint x="500" y="180" as="targetPoint" />
          </mxGeometry>
        </mxCell>
        <mxCell id="4b1Iy3w-y9_Fl1tEP3De-52" value="&amp;nbsp; &amp;nbsp; &amp;nbsp;" style="text;html=1;strokeColor=none;fillColor=none;align=center;verticalAlign=middle;whiteSpace=wrap;rounded=0;" vertex="1" parent="1">
          <mxGeometry x="40" y="430" width="40" height="20" as="geometry" />
        </mxCell>
        <mxCell id="4b1Iy3w-y9_Fl1tEP3De-53" value="" style="endArrow=classic;html=1;exitX=0.5;exitY=1;exitDx=0;exitDy=0;" edge="1" parent="1" source="4b1Iy3w-y9_Fl1tEP3De-11" target="4b1Iy3w-y9_Fl1tEP3De-15">
          <mxGeometry width="50" height="50" relative="1" as="geometry">
            <mxPoint x="450" y="280" as="sourcePoint" />
            <mxPoint x="500" y="230" as="targetPoint" />
          </mxGeometry>
        </mxCell>
        <mxCell id="4b1Iy3w-y9_Fl1tEP3De-54" value="" style="endArrow=classic;html=1;exitX=0.5;exitY=1;exitDx=0;exitDy=0;" edge="1" parent="1" source="4b1Iy3w-y9_Fl1tEP3De-12" target="4b1Iy3w-y9_Fl1tEP3De-16">
          <mxGeometry width="50" height="50" relative="1" as="geometry">
            <mxPoint x="450" y="280" as="sourcePoint" />
            <mxPoint x="500" y="230" as="targetPoint" />
          </mxGeometry>
        </mxCell>
        <mxCell id="4b1Iy3w-y9_Fl1tEP3De-55" value="" style="endArrow=classic;html=1;exitX=0.5;exitY=1;exitDx=0;exitDy=0;entryX=0.5;entryY=0;entryDx=0;entryDy=0;" edge="1" parent="1" source="4b1Iy3w-y9_Fl1tEP3De-13" target="4b1Iy3w-y9_Fl1tEP3De-17">
          <mxGeometry width="50" height="50" relative="1" as="geometry">
            <mxPoint x="450" y="280" as="sourcePoint" />
            <mxPoint x="500" y="230" as="targetPoint" />
          </mxGeometry>
        </mxCell>
        <mxCell id="4b1Iy3w-y9_Fl1tEP3De-56" value="" style="endArrow=classic;html=1;exitX=0.5;exitY=1;exitDx=0;exitDy=0;entryX=0.5;entryY=0;entryDx=0;entryDy=0;" edge="1" parent="1" source="4b1Iy3w-y9_Fl1tEP3De-14" target="4b1Iy3w-y9_Fl1tEP3De-18">
          <mxGeometry width="50" height="50" relative="1" as="geometry">
            <mxPoint x="450" y="280" as="sourcePoint" />
            <mxPoint x="500" y="230" as="targetPoint" />
          </mxGeometry>
        </mxCell>
        <mxCell id="4b1Iy3w-y9_Fl1tEP3De-57" value="" style="endArrow=classic;html=1;exitX=0.5;exitY=1;exitDx=0;exitDy=0;entryX=0.5;entryY=0;entryDx=0;entryDy=0;" edge="1" parent="1" source="4b1Iy3w-y9_Fl1tEP3De-21" target="4b1Iy3w-y9_Fl1tEP3De-19">
          <mxGeometry width="50" height="50" relative="1" as="geometry">
            <mxPoint x="450" y="280" as="sourcePoint" />
            <mxPoint x="500" y="230" as="targetPoint" />
          </mxGeometry>
        </mxCell>
        <mxCell id="4b1Iy3w-y9_Fl1tEP3De-58" value="" style="endArrow=classic;html=1;exitX=0.5;exitY=1;exitDx=0;exitDy=0;entryX=0.5;entryY=0;entryDx=0;entryDy=0;" edge="1" parent="1" source="4b1Iy3w-y9_Fl1tEP3De-22" target="4b1Iy3w-y9_Fl1tEP3De-20">
          <mxGeometry width="50" height="50" relative="1" as="geometry">
            <mxPoint x="450" y="280" as="sourcePoint" />
            <mxPoint x="500" y="230" as="targetPoint" />
          </mxGeometry>
        </mxCell>
        <mxCell id="4b1Iy3w-y9_Fl1tEP3De-59" value="" style="endArrow=classic;html=1;exitX=0.5;exitY=1;exitDx=0;exitDy=0;entryX=0.5;entryY=0;entryDx=0;entryDy=0;" edge="1" parent="1" source="4b1Iy3w-y9_Fl1tEP3De-30" target="4b1Iy3w-y9_Fl1tEP3De-24">
          <mxGeometry width="50" height="50" relative="1" as="geometry">
            <mxPoint x="450" y="280" as="sourcePoint" />
            <mxPoint x="500" y="230" as="targetPoint" />
          </mxGeometry>
        </mxCell>
        <mxCell id="4b1Iy3w-y9_Fl1tEP3De-60" value="" style="endArrow=classic;html=1;exitX=0.5;exitY=1;exitDx=0;exitDy=0;entryX=0.5;entryY=0;entryDx=0;entryDy=0;" edge="1" parent="1" source="4b1Iy3w-y9_Fl1tEP3De-31" target="4b1Iy3w-y9_Fl1tEP3De-25">
          <mxGeometry width="50" height="50" relative="1" as="geometry">
            <mxPoint x="450" y="280" as="sourcePoint" />
            <mxPoint x="500" y="230" as="targetPoint" />
          </mxGeometry>
        </mxCell>
        <mxCell id="4b1Iy3w-y9_Fl1tEP3De-61" value="" style="endArrow=classic;html=1;exitX=0.5;exitY=1;exitDx=0;exitDy=0;entryX=0.5;entryY=0;entryDx=0;entryDy=0;" edge="1" parent="1" source="4b1Iy3w-y9_Fl1tEP3De-32" target="4b1Iy3w-y9_Fl1tEP3De-27">
          <mxGeometry width="50" height="50" relative="1" as="geometry">
            <mxPoint x="450" y="280" as="sourcePoint" />
            <mxPoint x="500" y="230" as="targetPoint" />
          </mxGeometry>
        </mxCell>
        <mxCell id="4b1Iy3w-y9_Fl1tEP3De-62" value="" style="endArrow=classic;html=1;exitX=0.5;exitY=1;exitDx=0;exitDy=0;entryX=0.5;entryY=0;entryDx=0;entryDy=0;" edge="1" parent="1" source="4b1Iy3w-y9_Fl1tEP3De-33" target="4b1Iy3w-y9_Fl1tEP3De-28">
          <mxGeometry width="50" height="50" relative="1" as="geometry">
            <mxPoint x="450" y="280" as="sourcePoint" />
            <mxPoint x="500" y="230" as="targetPoint" />
          </mxGeometry>
        </mxCell>
      </root>
    </mxGraphModel>
  </diagram>
  <diagram name="单点更新" id="EGTqucYoortcmJNsD7Dk">
    <mxGraphModel dx="1024" dy="601" grid="1" gridSize="10" guides="1" tooltips="1" connect="1" arrows="1" fold="1" page="1" pageScale="1" pageWidth="827" pageHeight="1169" math="0" shadow="0">
      <root>
        <mxCell id="bxHfUNpiFkI6_JE5Mp-i-0" />
        <mxCell id="bxHfUNpiFkI6_JE5Mp-i-1" parent="bxHfUNpiFkI6_JE5Mp-i-0" />
        <mxCell id="bxHfUNpiFkI6_JE5Mp-i-2" value="1" style="rounded=0;whiteSpace=wrap;html=1;" vertex="1" parent="bxHfUNpiFkI6_JE5Mp-i-1">
          <mxGeometry x="420" y="40" width="40" height="40" as="geometry" />
        </mxCell>
        <mxCell id="bxHfUNpiFkI6_JE5Mp-i-3" value="13" style="rounded=0;whiteSpace=wrap;html=1;" vertex="1" parent="bxHfUNpiFkI6_JE5Mp-i-1">
          <mxGeometry x="460" y="40" width="40" height="40" as="geometry" />
        </mxCell>
        <mxCell id="bxHfUNpiFkI6_JE5Mp-i-4" value="1" style="rounded=0;whiteSpace=wrap;html=1;" vertex="1" parent="bxHfUNpiFkI6_JE5Mp-i-1">
          <mxGeometry x="230" y="120" width="40" height="40" as="geometry" />
        </mxCell>
        <mxCell id="bxHfUNpiFkI6_JE5Mp-i-5" value="7" style="rounded=0;whiteSpace=wrap;html=1;" vertex="1" parent="bxHfUNpiFkI6_JE5Mp-i-1">
          <mxGeometry x="270" y="120" width="40" height="40" as="geometry" />
        </mxCell>
        <mxCell id="bxHfUNpiFkI6_JE5Mp-i-6" value="8" style="rounded=0;whiteSpace=wrap;html=1;" vertex="1" parent="bxHfUNpiFkI6_JE5Mp-i-1">
          <mxGeometry x="610" y="120" width="40" height="40" as="geometry" />
        </mxCell>
        <mxCell id="bxHfUNpiFkI6_JE5Mp-i-7" value="13" style="rounded=0;whiteSpace=wrap;html=1;" vertex="1" parent="bxHfUNpiFkI6_JE5Mp-i-1">
          <mxGeometry x="650" y="120" width="40" height="40" as="geometry" />
        </mxCell>
        <mxCell id="bxHfUNpiFkI6_JE5Mp-i-8" value="1" style="rounded=0;whiteSpace=wrap;html=1;" vertex="1" parent="bxHfUNpiFkI6_JE5Mp-i-1">
          <mxGeometry x="110" y="200" width="40" height="40" as="geometry" />
        </mxCell>
        <mxCell id="bxHfUNpiFkI6_JE5Mp-i-9" value="4" style="rounded=0;whiteSpace=wrap;html=1;" vertex="1" parent="bxHfUNpiFkI6_JE5Mp-i-1">
          <mxGeometry x="150" y="200" width="40" height="40" as="geometry" />
        </mxCell>
        <mxCell id="bxHfUNpiFkI6_JE5Mp-i-10" value="5" style="rounded=0;whiteSpace=wrap;html=1;" vertex="1" parent="bxHfUNpiFkI6_JE5Mp-i-1">
          <mxGeometry x="340" y="200" width="40" height="40" as="geometry" />
        </mxCell>
        <mxCell id="bxHfUNpiFkI6_JE5Mp-i-11" value="7" style="rounded=0;whiteSpace=wrap;html=1;" vertex="1" parent="bxHfUNpiFkI6_JE5Mp-i-1">
          <mxGeometry x="380" y="200" width="40" height="40" as="geometry" />
        </mxCell>
        <mxCell id="bxHfUNpiFkI6_JE5Mp-i-12" value="1" style="rounded=0;whiteSpace=wrap;html=1;" vertex="1" parent="bxHfUNpiFkI6_JE5Mp-i-1">
          <mxGeometry x="50" y="280" width="40" height="40" as="geometry" />
        </mxCell>
        <mxCell id="bxHfUNpiFkI6_JE5Mp-i-13" value="2" style="rounded=0;whiteSpace=wrap;html=1;" vertex="1" parent="bxHfUNpiFkI6_JE5Mp-i-1">
          <mxGeometry x="90" y="280" width="40" height="40" as="geometry" />
        </mxCell>
        <mxCell id="bxHfUNpiFkI6_JE5Mp-i-14" value="3" style="rounded=0;whiteSpace=wrap;html=1;" vertex="1" parent="bxHfUNpiFkI6_JE5Mp-i-1">
          <mxGeometry x="170" y="280" width="40" height="40" as="geometry" />
        </mxCell>
        <mxCell id="bxHfUNpiFkI6_JE5Mp-i-15" value="4" style="rounded=0;whiteSpace=wrap;html=1;" vertex="1" parent="bxHfUNpiFkI6_JE5Mp-i-1">
          <mxGeometry x="210" y="280" width="40" height="40" as="geometry" />
        </mxCell>
        <mxCell id="bxHfUNpiFkI6_JE5Mp-i-16" value="1" style="rounded=0;whiteSpace=wrap;html=1;" vertex="1" parent="bxHfUNpiFkI6_JE5Mp-i-1">
          <mxGeometry x="40" y="360" width="40" height="40" as="geometry" />
        </mxCell>
        <mxCell id="bxHfUNpiFkI6_JE5Mp-i-17" value="2" style="rounded=0;whiteSpace=wrap;html=1;" vertex="1" parent="bxHfUNpiFkI6_JE5Mp-i-1">
          <mxGeometry x="100" y="360" width="40" height="40" as="geometry" />
        </mxCell>
        <mxCell id="bxHfUNpiFkI6_JE5Mp-i-18" value="3" style="rounded=0;whiteSpace=wrap;html=1;" vertex="1" parent="bxHfUNpiFkI6_JE5Mp-i-1">
          <mxGeometry x="160" y="360" width="40" height="40" as="geometry" />
        </mxCell>
        <mxCell id="bxHfUNpiFkI6_JE5Mp-i-19" value="4" style="rounded=0;whiteSpace=wrap;html=1;" vertex="1" parent="bxHfUNpiFkI6_JE5Mp-i-1">
          <mxGeometry x="220" y="360" width="40" height="40" as="geometry" />
        </mxCell>
        <mxCell id="bxHfUNpiFkI6_JE5Mp-i-20" value="5" style="rounded=0;whiteSpace=wrap;html=1;" vertex="1" parent="bxHfUNpiFkI6_JE5Mp-i-1">
          <mxGeometry x="280" y="360" width="40" height="40" as="geometry" />
        </mxCell>
        <mxCell id="bxHfUNpiFkI6_JE5Mp-i-21" value="6" style="rounded=0;whiteSpace=wrap;html=1;" vertex="1" parent="bxHfUNpiFkI6_JE5Mp-i-1">
          <mxGeometry x="340" y="360" width="40" height="40" as="geometry" />
        </mxCell>
        <mxCell id="bxHfUNpiFkI6_JE5Mp-i-22" value="5" style="rounded=0;whiteSpace=wrap;html=1;" vertex="1" parent="bxHfUNpiFkI6_JE5Mp-i-1">
          <mxGeometry x="290" y="280" width="40" height="40" as="geometry" />
        </mxCell>
        <mxCell id="bxHfUNpiFkI6_JE5Mp-i-23" value="6" style="rounded=0;whiteSpace=wrap;html=1;" vertex="1" parent="bxHfUNpiFkI6_JE5Mp-i-1">
          <mxGeometry x="330" y="280" width="40" height="40" as="geometry" />
        </mxCell>
        <mxCell id="bxHfUNpiFkI6_JE5Mp-i-24" value="7" style="rounded=0;whiteSpace=wrap;html=1;" vertex="1" parent="bxHfUNpiFkI6_JE5Mp-i-1">
          <mxGeometry x="400" y="280" width="40" height="40" as="geometry" />
        </mxCell>
        <mxCell id="bxHfUNpiFkI6_JE5Mp-i-25" value="8" style="rounded=0;whiteSpace=wrap;html=1;" vertex="1" parent="bxHfUNpiFkI6_JE5Mp-i-1">
          <mxGeometry x="460" y="360" width="40" height="40" as="geometry" />
        </mxCell>
        <mxCell id="bxHfUNpiFkI6_JE5Mp-i-26" value="9" style="rounded=0;whiteSpace=wrap;html=1;" vertex="1" parent="bxHfUNpiFkI6_JE5Mp-i-1">
          <mxGeometry x="520" y="360" width="40" height="40" as="geometry" />
        </mxCell>
        <mxCell id="bxHfUNpiFkI6_JE5Mp-i-27" value="10" style="rounded=0;whiteSpace=wrap;html=1;" vertex="1" parent="bxHfUNpiFkI6_JE5Mp-i-1">
          <mxGeometry x="580" y="280" width="40" height="40" as="geometry" />
        </mxCell>
        <mxCell id="bxHfUNpiFkI6_JE5Mp-i-28" value="11" style="rounded=0;whiteSpace=wrap;html=1;" vertex="1" parent="bxHfUNpiFkI6_JE5Mp-i-1">
          <mxGeometry x="640" y="360" width="40" height="40" as="geometry" />
        </mxCell>
        <mxCell id="bxHfUNpiFkI6_JE5Mp-i-29" value="12" style="rounded=0;whiteSpace=wrap;html=1;" vertex="1" parent="bxHfUNpiFkI6_JE5Mp-i-1">
          <mxGeometry x="700" y="360" width="40" height="40" as="geometry" />
        </mxCell>
        <mxCell id="bxHfUNpiFkI6_JE5Mp-i-30" value="13" style="rounded=0;whiteSpace=wrap;html=1;" vertex="1" parent="bxHfUNpiFkI6_JE5Mp-i-1">
          <mxGeometry x="760" y="280" width="40" height="40" as="geometry" />
        </mxCell>
        <mxCell id="bxHfUNpiFkI6_JE5Mp-i-31" value="8" style="rounded=0;whiteSpace=wrap;html=1;" vertex="1" parent="bxHfUNpiFkI6_JE5Mp-i-1">
          <mxGeometry x="470" y="280" width="40" height="40" as="geometry" />
        </mxCell>
        <mxCell id="bxHfUNpiFkI6_JE5Mp-i-32" value="9" style="rounded=0;whiteSpace=wrap;html=1;" vertex="1" parent="bxHfUNpiFkI6_JE5Mp-i-1">
          <mxGeometry x="510" y="280" width="40" height="40" as="geometry" />
        </mxCell>
        <mxCell id="bxHfUNpiFkI6_JE5Mp-i-33" value="11" style="rounded=0;whiteSpace=wrap;html=1;" vertex="1" parent="bxHfUNpiFkI6_JE5Mp-i-1">
          <mxGeometry x="650" y="280" width="40" height="40" as="geometry" />
        </mxCell>
        <mxCell id="bxHfUNpiFkI6_JE5Mp-i-34" value="12" style="rounded=0;whiteSpace=wrap;html=1;" vertex="1" parent="bxHfUNpiFkI6_JE5Mp-i-1">
          <mxGeometry x="690" y="280" width="40" height="40" as="geometry" />
        </mxCell>
        <mxCell id="bxHfUNpiFkI6_JE5Mp-i-35" value="8" style="rounded=0;whiteSpace=wrap;html=1;" vertex="1" parent="bxHfUNpiFkI6_JE5Mp-i-1">
          <mxGeometry x="520" y="200" width="40" height="40" as="geometry" />
        </mxCell>
        <mxCell id="bxHfUNpiFkI6_JE5Mp-i-36" value="10" style="rounded=0;whiteSpace=wrap;html=1;" vertex="1" parent="bxHfUNpiFkI6_JE5Mp-i-1">
          <mxGeometry x="560" y="200" width="40" height="40" as="geometry" />
        </mxCell>
        <mxCell id="bxHfUNpiFkI6_JE5Mp-i-37" value="11" style="rounded=0;whiteSpace=wrap;html=1;" vertex="1" parent="bxHfUNpiFkI6_JE5Mp-i-1">
          <mxGeometry x="700" y="200" width="40" height="40" as="geometry" />
        </mxCell>
        <mxCell id="bxHfUNpiFkI6_JE5Mp-i-38" value="13" style="rounded=0;whiteSpace=wrap;html=1;" vertex="1" parent="bxHfUNpiFkI6_JE5Mp-i-1">
          <mxGeometry x="740" y="200" width="40" height="40" as="geometry" />
        </mxCell>
        <mxCell id="bxHfUNpiFkI6_JE5Mp-i-39" value="" style="endArrow=classic;html=1;exitX=0.5;exitY=1;exitDx=0;exitDy=0;entryX=0;entryY=0;entryDx=0;entryDy=0;strokeWidth=3;" edge="1" source="bxHfUNpiFkI6_JE5Mp-i-2" target="bxHfUNpiFkI6_JE5Mp-i-5" parent="bxHfUNpiFkI6_JE5Mp-i-1">
          <mxGeometry width="50" height="50" relative="1" as="geometry">
            <mxPoint x="450" y="230" as="sourcePoint" />
            <mxPoint x="500" y="180" as="targetPoint" />
          </mxGeometry>
        </mxCell>
        <mxCell id="bxHfUNpiFkI6_JE5Mp-i-40" value="" style="endArrow=classic;html=1;exitX=0.5;exitY=1;exitDx=0;exitDy=0;entryX=1;entryY=0;entryDx=0;entryDy=0;" edge="1" source="bxHfUNpiFkI6_JE5Mp-i-3" target="bxHfUNpiFkI6_JE5Mp-i-6" parent="bxHfUNpiFkI6_JE5Mp-i-1">
          <mxGeometry width="50" height="50" relative="1" as="geometry">
            <mxPoint x="450" y="230" as="sourcePoint" />
            <mxPoint x="500" y="180" as="targetPoint" />
          </mxGeometry>
        </mxCell>
        <mxCell id="bxHfUNpiFkI6_JE5Mp-i-41" value="" style="endArrow=classic;html=1;entryX=0;entryY=0;entryDx=0;entryDy=0;" edge="1" target="bxHfUNpiFkI6_JE5Mp-i-9" parent="bxHfUNpiFkI6_JE5Mp-i-1">
          <mxGeometry width="50" height="50" relative="1" as="geometry">
            <mxPoint x="250" y="160" as="sourcePoint" />
            <mxPoint x="500" y="180" as="targetPoint" />
          </mxGeometry>
        </mxCell>
        <mxCell id="bxHfUNpiFkI6_JE5Mp-i-42" value="" style="endArrow=classic;html=1;exitX=0.5;exitY=1;exitDx=0;exitDy=0;entryX=1;entryY=0;entryDx=0;entryDy=0;strokeWidth=3;" edge="1" source="bxHfUNpiFkI6_JE5Mp-i-5" target="bxHfUNpiFkI6_JE5Mp-i-10" parent="bxHfUNpiFkI6_JE5Mp-i-1">
          <mxGeometry width="50" height="50" relative="1" as="geometry">
            <mxPoint x="450" y="230" as="sourcePoint" />
            <mxPoint x="500" y="180" as="targetPoint" />
          </mxGeometry>
        </mxCell>
        <mxCell id="bxHfUNpiFkI6_JE5Mp-i-43" value="" style="endArrow=classic;html=1;exitX=0.5;exitY=1;exitDx=0;exitDy=0;entryX=0;entryY=0;entryDx=0;entryDy=0;" edge="1" source="bxHfUNpiFkI6_JE5Mp-i-6" target="bxHfUNpiFkI6_JE5Mp-i-36" parent="bxHfUNpiFkI6_JE5Mp-i-1">
          <mxGeometry width="50" height="50" relative="1" as="geometry">
            <mxPoint x="450" y="230" as="sourcePoint" />
            <mxPoint x="500" y="180" as="targetPoint" />
          </mxGeometry>
        </mxCell>
        <mxCell id="bxHfUNpiFkI6_JE5Mp-i-44" value="" style="endArrow=classic;html=1;exitX=0.5;exitY=1;exitDx=0;exitDy=0;entryX=1;entryY=0;entryDx=0;entryDy=0;" edge="1" source="bxHfUNpiFkI6_JE5Mp-i-7" target="bxHfUNpiFkI6_JE5Mp-i-37" parent="bxHfUNpiFkI6_JE5Mp-i-1">
          <mxGeometry width="50" height="50" relative="1" as="geometry">
            <mxPoint x="450" y="230" as="sourcePoint" />
            <mxPoint x="500" y="180" as="targetPoint" />
          </mxGeometry>
        </mxCell>
        <mxCell id="bxHfUNpiFkI6_JE5Mp-i-45" value="" style="endArrow=classic;html=1;entryX=1;entryY=0;entryDx=0;entryDy=0;" edge="1" target="bxHfUNpiFkI6_JE5Mp-i-12" parent="bxHfUNpiFkI6_JE5Mp-i-1">
          <mxGeometry width="50" height="50" relative="1" as="geometry">
            <mxPoint x="130" y="240" as="sourcePoint" />
            <mxPoint x="500" y="180" as="targetPoint" />
          </mxGeometry>
        </mxCell>
        <mxCell id="bxHfUNpiFkI6_JE5Mp-i-46" value="" style="endArrow=classic;html=1;exitX=0.5;exitY=1;exitDx=0;exitDy=0;entryX=0;entryY=0;entryDx=0;entryDy=0;" edge="1" source="bxHfUNpiFkI6_JE5Mp-i-9" target="bxHfUNpiFkI6_JE5Mp-i-15" parent="bxHfUNpiFkI6_JE5Mp-i-1">
          <mxGeometry width="50" height="50" relative="1" as="geometry">
            <mxPoint x="450" y="230" as="sourcePoint" />
            <mxPoint x="500" y="180" as="targetPoint" />
          </mxGeometry>
        </mxCell>
        <mxCell id="bxHfUNpiFkI6_JE5Mp-i-47" value="" style="endArrow=classic;html=1;exitX=0.5;exitY=1;exitDx=0;exitDy=0;entryX=0.5;entryY=0;entryDx=0;entryDy=0;strokeWidth=3;" edge="1" source="bxHfUNpiFkI6_JE5Mp-i-10" target="bxHfUNpiFkI6_JE5Mp-i-22" parent="bxHfUNpiFkI6_JE5Mp-i-1">
          <mxGeometry width="50" height="50" relative="1" as="geometry">
            <mxPoint x="450" y="230" as="sourcePoint" />
            <mxPoint x="500" y="180" as="targetPoint" />
          </mxGeometry>
        </mxCell>
        <mxCell id="bxHfUNpiFkI6_JE5Mp-i-48" value="" style="endArrow=classic;html=1;exitX=0.5;exitY=1;exitDx=0;exitDy=0;entryX=0.5;entryY=0;entryDx=0;entryDy=0;" edge="1" source="bxHfUNpiFkI6_JE5Mp-i-11" target="bxHfUNpiFkI6_JE5Mp-i-24" parent="bxHfUNpiFkI6_JE5Mp-i-1">
          <mxGeometry width="50" height="50" relative="1" as="geometry">
            <mxPoint x="450" y="230" as="sourcePoint" />
            <mxPoint x="500" y="180" as="targetPoint" />
          </mxGeometry>
        </mxCell>
        <mxCell id="bxHfUNpiFkI6_JE5Mp-i-49" value="" style="endArrow=classic;html=1;exitX=0.5;exitY=1;exitDx=0;exitDy=0;entryX=1;entryY=0;entryDx=0;entryDy=0;" edge="1" source="bxHfUNpiFkI6_JE5Mp-i-35" target="bxHfUNpiFkI6_JE5Mp-i-31" parent="bxHfUNpiFkI6_JE5Mp-i-1">
          <mxGeometry width="50" height="50" relative="1" as="geometry">
            <mxPoint x="450" y="230" as="sourcePoint" />
            <mxPoint x="500" y="180" as="targetPoint" />
          </mxGeometry>
        </mxCell>
        <mxCell id="bxHfUNpiFkI6_JE5Mp-i-50" value="" style="endArrow=classic;html=1;exitX=0.5;exitY=1;exitDx=0;exitDy=0;entryX=0.5;entryY=0;entryDx=0;entryDy=0;" edge="1" source="bxHfUNpiFkI6_JE5Mp-i-36" target="bxHfUNpiFkI6_JE5Mp-i-27" parent="bxHfUNpiFkI6_JE5Mp-i-1">
          <mxGeometry width="50" height="50" relative="1" as="geometry">
            <mxPoint x="450" y="230" as="sourcePoint" />
            <mxPoint x="500" y="180" as="targetPoint" />
          </mxGeometry>
        </mxCell>
        <mxCell id="bxHfUNpiFkI6_JE5Mp-i-51" value="" style="endArrow=classic;html=1;exitX=0.5;exitY=1;exitDx=0;exitDy=0;entryX=0;entryY=0;entryDx=0;entryDy=0;" edge="1" source="bxHfUNpiFkI6_JE5Mp-i-37" target="bxHfUNpiFkI6_JE5Mp-i-34" parent="bxHfUNpiFkI6_JE5Mp-i-1">
          <mxGeometry width="50" height="50" relative="1" as="geometry">
            <mxPoint x="450" y="230" as="sourcePoint" />
            <mxPoint x="500" y="180" as="targetPoint" />
          </mxGeometry>
        </mxCell>
        <mxCell id="bxHfUNpiFkI6_JE5Mp-i-52" value="" style="endArrow=classic;html=1;exitX=0.5;exitY=1;exitDx=0;exitDy=0;entryX=0.5;entryY=0;entryDx=0;entryDy=0;" edge="1" source="bxHfUNpiFkI6_JE5Mp-i-38" target="bxHfUNpiFkI6_JE5Mp-i-30" parent="bxHfUNpiFkI6_JE5Mp-i-1">
          <mxGeometry width="50" height="50" relative="1" as="geometry">
            <mxPoint x="450" y="230" as="sourcePoint" />
            <mxPoint x="500" y="180" as="targetPoint" />
          </mxGeometry>
        </mxCell>
        <mxCell id="bxHfUNpiFkI6_JE5Mp-i-53" value="" style="endArrow=classic;html=1;exitX=0.5;exitY=1;exitDx=0;exitDy=0;" edge="1" source="bxHfUNpiFkI6_JE5Mp-i-12" target="bxHfUNpiFkI6_JE5Mp-i-16" parent="bxHfUNpiFkI6_JE5Mp-i-1">
          <mxGeometry width="50" height="50" relative="1" as="geometry">
            <mxPoint x="450" y="280" as="sourcePoint" />
            <mxPoint x="500" y="230" as="targetPoint" />
          </mxGeometry>
        </mxCell>
        <mxCell id="bxHfUNpiFkI6_JE5Mp-i-54" value="" style="endArrow=classic;html=1;exitX=0.5;exitY=1;exitDx=0;exitDy=0;" edge="1" source="bxHfUNpiFkI6_JE5Mp-i-13" target="bxHfUNpiFkI6_JE5Mp-i-17" parent="bxHfUNpiFkI6_JE5Mp-i-1">
          <mxGeometry width="50" height="50" relative="1" as="geometry">
            <mxPoint x="450" y="280" as="sourcePoint" />
            <mxPoint x="500" y="230" as="targetPoint" />
          </mxGeometry>
        </mxCell>
        <mxCell id="bxHfUNpiFkI6_JE5Mp-i-55" value="" style="endArrow=classic;html=1;exitX=0.5;exitY=1;exitDx=0;exitDy=0;entryX=0.5;entryY=0;entryDx=0;entryDy=0;" edge="1" source="bxHfUNpiFkI6_JE5Mp-i-14" target="bxHfUNpiFkI6_JE5Mp-i-18" parent="bxHfUNpiFkI6_JE5Mp-i-1">
          <mxGeometry width="50" height="50" relative="1" as="geometry">
            <mxPoint x="450" y="280" as="sourcePoint" />
            <mxPoint x="500" y="230" as="targetPoint" />
          </mxGeometry>
        </mxCell>
        <mxCell id="bxHfUNpiFkI6_JE5Mp-i-56" value="" style="endArrow=classic;html=1;exitX=0.5;exitY=1;exitDx=0;exitDy=0;entryX=0.5;entryY=0;entryDx=0;entryDy=0;" edge="1" source="bxHfUNpiFkI6_JE5Mp-i-15" target="bxHfUNpiFkI6_JE5Mp-i-19" parent="bxHfUNpiFkI6_JE5Mp-i-1">
          <mxGeometry width="50" height="50" relative="1" as="geometry">
            <mxPoint x="450" y="280" as="sourcePoint" />
            <mxPoint x="500" y="230" as="targetPoint" />
          </mxGeometry>
        </mxCell>
        <mxCell id="bxHfUNpiFkI6_JE5Mp-i-57" value="" style="endArrow=classic;html=1;exitX=0.5;exitY=1;exitDx=0;exitDy=0;entryX=0.5;entryY=0;entryDx=0;entryDy=0;strokeWidth=3;" edge="1" source="bxHfUNpiFkI6_JE5Mp-i-22" target="bxHfUNpiFkI6_JE5Mp-i-20" parent="bxHfUNpiFkI6_JE5Mp-i-1">
          <mxGeometry width="50" height="50" relative="1" as="geometry">
            <mxPoint x="450" y="280" as="sourcePoint" />
            <mxPoint x="500" y="230" as="targetPoint" />
          </mxGeometry>
        </mxCell>
        <mxCell id="bxHfUNpiFkI6_JE5Mp-i-58" value="" style="endArrow=classic;html=1;exitX=0.5;exitY=1;exitDx=0;exitDy=0;entryX=0.5;entryY=0;entryDx=0;entryDy=0;" edge="1" source="bxHfUNpiFkI6_JE5Mp-i-23" target="bxHfUNpiFkI6_JE5Mp-i-21" parent="bxHfUNpiFkI6_JE5Mp-i-1">
          <mxGeometry width="50" height="50" relative="1" as="geometry">
            <mxPoint x="450" y="280" as="sourcePoint" />
            <mxPoint x="500" y="230" as="targetPoint" />
          </mxGeometry>
        </mxCell>
        <mxCell id="bxHfUNpiFkI6_JE5Mp-i-59" value="" style="endArrow=classic;html=1;exitX=0.5;exitY=1;exitDx=0;exitDy=0;entryX=0.5;entryY=0;entryDx=0;entryDy=0;" edge="1" source="bxHfUNpiFkI6_JE5Mp-i-31" target="bxHfUNpiFkI6_JE5Mp-i-25" parent="bxHfUNpiFkI6_JE5Mp-i-1">
          <mxGeometry width="50" height="50" relative="1" as="geometry">
            <mxPoint x="450" y="280" as="sourcePoint" />
            <mxPoint x="500" y="230" as="targetPoint" />
          </mxGeometry>
        </mxCell>
        <mxCell id="bxHfUNpiFkI6_JE5Mp-i-60" value="" style="endArrow=classic;html=1;exitX=0.5;exitY=1;exitDx=0;exitDy=0;entryX=0.5;entryY=0;entryDx=0;entryDy=0;" edge="1" source="bxHfUNpiFkI6_JE5Mp-i-32" target="bxHfUNpiFkI6_JE5Mp-i-26" parent="bxHfUNpiFkI6_JE5Mp-i-1">
          <mxGeometry width="50" height="50" relative="1" as="geometry">
            <mxPoint x="450" y="280" as="sourcePoint" />
            <mxPoint x="500" y="230" as="targetPoint" />
          </mxGeometry>
        </mxCell>
        <mxCell id="bxHfUNpiFkI6_JE5Mp-i-61" value="" style="endArrow=classic;html=1;exitX=0.5;exitY=1;exitDx=0;exitDy=0;entryX=0.5;entryY=0;entryDx=0;entryDy=0;" edge="1" source="bxHfUNpiFkI6_JE5Mp-i-33" target="bxHfUNpiFkI6_JE5Mp-i-28" parent="bxHfUNpiFkI6_JE5Mp-i-1">
          <mxGeometry width="50" height="50" relative="1" as="geometry">
            <mxPoint x="450" y="280" as="sourcePoint" />
            <mxPoint x="500" y="230" as="targetPoint" />
          </mxGeometry>
        </mxCell>
        <mxCell id="bxHfUNpiFkI6_JE5Mp-i-62" value="" style="endArrow=classic;html=1;exitX=0.5;exitY=1;exitDx=0;exitDy=0;entryX=0.5;entryY=0;entryDx=0;entryDy=0;" edge="1" source="bxHfUNpiFkI6_JE5Mp-i-34" target="bxHfUNpiFkI6_JE5Mp-i-29" parent="bxHfUNpiFkI6_JE5Mp-i-1">
          <mxGeometry width="50" height="50" relative="1" as="geometry">
            <mxPoint x="450" y="280" as="sourcePoint" />
            <mxPoint x="500" y="230" as="targetPoint" />
          </mxGeometry>
        </mxCell>
        <mxCell id="bxHfUNpiFkI6_JE5Mp-i-63" value="需要更新index=5" style="text;html=1;align=center;verticalAlign=middle;resizable=0;points=[];autosize=1;" vertex="1" parent="bxHfUNpiFkI6_JE5Mp-i-1">
          <mxGeometry x="410" y="10" width="110" height="20" as="geometry" />
        </mxCell>
        <mxCell id="bxHfUNpiFkI6_JE5Mp-i-64" value="5 &amp;lt;= (1+13)/2" style="text;html=1;align=center;verticalAlign=middle;resizable=0;points=[];autosize=1;" vertex="1" parent="bxHfUNpiFkI6_JE5Mp-i-1">
          <mxGeometry x="335" y="100" width="90" height="20" as="geometry" />
        </mxCell>
        <mxCell id="bxHfUNpiFkI6_JE5Mp-i-66" value="5 &amp;gt; (1+7)/2" style="text;html=1;align=center;verticalAlign=middle;resizable=0;points=[];autosize=1;" vertex="1" parent="bxHfUNpiFkI6_JE5Mp-i-1">
          <mxGeometry x="330" y="160" width="70" height="20" as="geometry" />
        </mxCell>
        <mxCell id="bxHfUNpiFkI6_JE5Mp-i-67" value="5 &amp;lt;= (5+7)/2" style="text;html=1;align=center;verticalAlign=middle;resizable=0;points=[];autosize=1;" vertex="1" parent="bxHfUNpiFkI6_JE5Mp-i-1">
          <mxGeometry x="260" y="240" width="80" height="20" as="geometry" />
        </mxCell>
        <mxCell id="bxHfUNpiFkI6_JE5Mp-i-68" value="5 &amp;lt;= (5+6)/2" style="text;html=1;strokeColor=none;fillColor=none;align=center;verticalAlign=middle;whiteSpace=wrap;rounded=0;" vertex="1" parent="bxHfUNpiFkI6_JE5Mp-i-1">
          <mxGeometry x="230" y="320" width="80" height="20" as="geometry" />
        </mxCell>
        <mxCell id="bxHfUNpiFkI6_JE5Mp-i-69" value="left == right == 5" style="text;html=1;align=center;verticalAlign=middle;resizable=0;points=[];autosize=1;" vertex="1" parent="bxHfUNpiFkI6_JE5Mp-i-1">
          <mxGeometry x="250" y="440" width="100" height="20" as="geometry" />
        </mxCell>
        <mxCell id="bxHfUNpiFkI6_JE5Mp-i-70" value="" style="shape=flexArrow;endArrow=classic;html=1;strokeColor=#000000;strokeWidth=3;endWidth=14;endSize=4.33;exitX=0.492;exitY=0.08;exitDx=0;exitDy=0;exitPerimeter=0;" edge="1" parent="bxHfUNpiFkI6_JE5Mp-i-1" source="bxHfUNpiFkI6_JE5Mp-i-69">
          <mxGeometry width="50" height="50" relative="1" as="geometry">
            <mxPoint x="300" y="710.800048828125" as="sourcePoint" />
            <mxPoint x="300" y="400" as="targetPoint" />
          </mxGeometry>
        </mxCell>
        <mxCell id="bxHfUNpiFkI6_JE5Mp-i-71" value="找到并更新" style="text;html=1;align=center;verticalAlign=middle;resizable=0;points=[];autosize=1;" vertex="1" parent="bxHfUNpiFkI6_JE5Mp-i-1">
          <mxGeometry x="300" y="420" width="80" height="20" as="geometry" />
        </mxCell>
      </root>
    </mxGraphModel>
  </diagram>
  <diagram name="区间查询" id="VOZvbJR2MH07ZTYppxDM">
    <mxGraphModel dx="1024" dy="601" grid="1" gridSize="10" guides="1" tooltips="1" connect="1" arrows="1" fold="1" page="1" pageScale="1" pageWidth="827" pageHeight="1169" math="0" shadow="0">
      <root>
        <mxCell id="eeNMLIX59yPxrYkGyPtQ-0" />
        <mxCell id="eeNMLIX59yPxrYkGyPtQ-1" parent="eeNMLIX59yPxrYkGyPtQ-0" />
        <mxCell id="lGnFqvOrJ4ilXYLma0Gt-0" value="1" style="rounded=0;whiteSpace=wrap;html=1;" vertex="1" parent="eeNMLIX59yPxrYkGyPtQ-1">
          <mxGeometry x="420" y="40" width="40" height="40" as="geometry" />
        </mxCell>
        <mxCell id="lGnFqvOrJ4ilXYLma0Gt-1" value="13" style="rounded=0;whiteSpace=wrap;html=1;" vertex="1" parent="eeNMLIX59yPxrYkGyPtQ-1">
          <mxGeometry x="460" y="40" width="40" height="40" as="geometry" />
        </mxCell>
        <mxCell id="lGnFqvOrJ4ilXYLma0Gt-2" value="1" style="rounded=0;whiteSpace=wrap;html=1;" vertex="1" parent="eeNMLIX59yPxrYkGyPtQ-1">
          <mxGeometry x="230" y="120" width="40" height="40" as="geometry" />
        </mxCell>
        <mxCell id="lGnFqvOrJ4ilXYLma0Gt-3" value="7" style="rounded=0;whiteSpace=wrap;html=1;" vertex="1" parent="eeNMLIX59yPxrYkGyPtQ-1">
          <mxGeometry x="270" y="120" width="40" height="40" as="geometry" />
        </mxCell>
        <mxCell id="lGnFqvOrJ4ilXYLma0Gt-4" value="8" style="rounded=0;whiteSpace=wrap;html=1;" vertex="1" parent="eeNMLIX59yPxrYkGyPtQ-1">
          <mxGeometry x="610" y="120" width="40" height="40" as="geometry" />
        </mxCell>
        <mxCell id="lGnFqvOrJ4ilXYLma0Gt-5" value="13" style="rounded=0;whiteSpace=wrap;html=1;" vertex="1" parent="eeNMLIX59yPxrYkGyPtQ-1">
          <mxGeometry x="650" y="120" width="40" height="40" as="geometry" />
        </mxCell>
        <mxCell id="lGnFqvOrJ4ilXYLma0Gt-6" value="1" style="rounded=0;whiteSpace=wrap;html=1;" vertex="1" parent="eeNMLIX59yPxrYkGyPtQ-1">
          <mxGeometry x="110" y="200" width="40" height="40" as="geometry" />
        </mxCell>
        <mxCell id="lGnFqvOrJ4ilXYLma0Gt-7" value="4" style="rounded=0;whiteSpace=wrap;html=1;" vertex="1" parent="eeNMLIX59yPxrYkGyPtQ-1">
          <mxGeometry x="150" y="200" width="40" height="40" as="geometry" />
        </mxCell>
        <mxCell id="lGnFqvOrJ4ilXYLma0Gt-8" value="5" style="rounded=0;whiteSpace=wrap;html=1;" vertex="1" parent="eeNMLIX59yPxrYkGyPtQ-1">
          <mxGeometry x="340" y="200" width="40" height="40" as="geometry" />
        </mxCell>
        <mxCell id="lGnFqvOrJ4ilXYLma0Gt-9" value="7" style="rounded=0;whiteSpace=wrap;html=1;" vertex="1" parent="eeNMLIX59yPxrYkGyPtQ-1">
          <mxGeometry x="380" y="200" width="40" height="40" as="geometry" />
        </mxCell>
        <mxCell id="lGnFqvOrJ4ilXYLma0Gt-10" value="1" style="rounded=0;whiteSpace=wrap;html=1;" vertex="1" parent="eeNMLIX59yPxrYkGyPtQ-1">
          <mxGeometry x="50" y="280" width="40" height="40" as="geometry" />
        </mxCell>
        <mxCell id="lGnFqvOrJ4ilXYLma0Gt-11" value="2" style="rounded=0;whiteSpace=wrap;html=1;" vertex="1" parent="eeNMLIX59yPxrYkGyPtQ-1">
          <mxGeometry x="90" y="280" width="40" height="40" as="geometry" />
        </mxCell>
        <mxCell id="lGnFqvOrJ4ilXYLma0Gt-12" value="3" style="rounded=0;whiteSpace=wrap;html=1;" vertex="1" parent="eeNMLIX59yPxrYkGyPtQ-1">
          <mxGeometry x="170" y="280" width="40" height="40" as="geometry" />
        </mxCell>
        <mxCell id="lGnFqvOrJ4ilXYLma0Gt-13" value="4" style="rounded=0;whiteSpace=wrap;html=1;" vertex="1" parent="eeNMLIX59yPxrYkGyPtQ-1">
          <mxGeometry x="210" y="280" width="40" height="40" as="geometry" />
        </mxCell>
        <mxCell id="lGnFqvOrJ4ilXYLma0Gt-14" value="1" style="rounded=0;whiteSpace=wrap;html=1;" vertex="1" parent="eeNMLIX59yPxrYkGyPtQ-1">
          <mxGeometry x="40" y="360" width="40" height="40" as="geometry" />
        </mxCell>
        <mxCell id="lGnFqvOrJ4ilXYLma0Gt-15" value="2" style="rounded=0;whiteSpace=wrap;html=1;" vertex="1" parent="eeNMLIX59yPxrYkGyPtQ-1">
          <mxGeometry x="100" y="360" width="40" height="40" as="geometry" />
        </mxCell>
        <mxCell id="lGnFqvOrJ4ilXYLma0Gt-16" value="3" style="rounded=0;whiteSpace=wrap;html=1;" vertex="1" parent="eeNMLIX59yPxrYkGyPtQ-1">
          <mxGeometry x="160" y="360" width="40" height="40" as="geometry" />
        </mxCell>
        <mxCell id="lGnFqvOrJ4ilXYLma0Gt-17" value="4" style="rounded=0;whiteSpace=wrap;html=1;" vertex="1" parent="eeNMLIX59yPxrYkGyPtQ-1">
          <mxGeometry x="220" y="360" width="40" height="40" as="geometry" />
        </mxCell>
        <mxCell id="lGnFqvOrJ4ilXYLma0Gt-18" value="5" style="rounded=0;whiteSpace=wrap;html=1;" vertex="1" parent="eeNMLIX59yPxrYkGyPtQ-1">
          <mxGeometry x="280" y="360" width="40" height="40" as="geometry" />
        </mxCell>
        <mxCell id="lGnFqvOrJ4ilXYLma0Gt-19" value="6" style="rounded=0;whiteSpace=wrap;html=1;" vertex="1" parent="eeNMLIX59yPxrYkGyPtQ-1">
          <mxGeometry x="340" y="360" width="40" height="40" as="geometry" />
        </mxCell>
        <mxCell id="lGnFqvOrJ4ilXYLma0Gt-20" value="5" style="rounded=0;whiteSpace=wrap;html=1;" vertex="1" parent="eeNMLIX59yPxrYkGyPtQ-1">
          <mxGeometry x="290" y="280" width="40" height="40" as="geometry" />
        </mxCell>
        <mxCell id="lGnFqvOrJ4ilXYLma0Gt-21" value="6" style="rounded=0;whiteSpace=wrap;html=1;" vertex="1" parent="eeNMLIX59yPxrYkGyPtQ-1">
          <mxGeometry x="330" y="280" width="40" height="40" as="geometry" />
        </mxCell>
        <mxCell id="lGnFqvOrJ4ilXYLma0Gt-22" value="7" style="rounded=0;whiteSpace=wrap;html=1;" vertex="1" parent="eeNMLIX59yPxrYkGyPtQ-1">
          <mxGeometry x="400" y="280" width="40" height="40" as="geometry" />
        </mxCell>
        <mxCell id="lGnFqvOrJ4ilXYLma0Gt-23" value="8" style="rounded=0;whiteSpace=wrap;html=1;" vertex="1" parent="eeNMLIX59yPxrYkGyPtQ-1">
          <mxGeometry x="460" y="360" width="40" height="40" as="geometry" />
        </mxCell>
        <mxCell id="lGnFqvOrJ4ilXYLma0Gt-24" value="9" style="rounded=0;whiteSpace=wrap;html=1;" vertex="1" parent="eeNMLIX59yPxrYkGyPtQ-1">
          <mxGeometry x="520" y="360" width="40" height="40" as="geometry" />
        </mxCell>
        <mxCell id="lGnFqvOrJ4ilXYLma0Gt-25" value="10" style="rounded=0;whiteSpace=wrap;html=1;" vertex="1" parent="eeNMLIX59yPxrYkGyPtQ-1">
          <mxGeometry x="580" y="280" width="40" height="40" as="geometry" />
        </mxCell>
        <mxCell id="lGnFqvOrJ4ilXYLma0Gt-26" value="11" style="rounded=0;whiteSpace=wrap;html=1;" vertex="1" parent="eeNMLIX59yPxrYkGyPtQ-1">
          <mxGeometry x="640" y="360" width="40" height="40" as="geometry" />
        </mxCell>
        <mxCell id="lGnFqvOrJ4ilXYLma0Gt-27" value="12" style="rounded=0;whiteSpace=wrap;html=1;" vertex="1" parent="eeNMLIX59yPxrYkGyPtQ-1">
          <mxGeometry x="700" y="360" width="40" height="40" as="geometry" />
        </mxCell>
        <mxCell id="lGnFqvOrJ4ilXYLma0Gt-28" value="13" style="rounded=0;whiteSpace=wrap;html=1;" vertex="1" parent="eeNMLIX59yPxrYkGyPtQ-1">
          <mxGeometry x="760" y="280" width="40" height="40" as="geometry" />
        </mxCell>
        <mxCell id="lGnFqvOrJ4ilXYLma0Gt-29" value="8" style="rounded=0;whiteSpace=wrap;html=1;" vertex="1" parent="eeNMLIX59yPxrYkGyPtQ-1">
          <mxGeometry x="470" y="280" width="40" height="40" as="geometry" />
        </mxCell>
        <mxCell id="lGnFqvOrJ4ilXYLma0Gt-30" value="9" style="rounded=0;whiteSpace=wrap;html=1;" vertex="1" parent="eeNMLIX59yPxrYkGyPtQ-1">
          <mxGeometry x="510" y="280" width="40" height="40" as="geometry" />
        </mxCell>
        <mxCell id="lGnFqvOrJ4ilXYLma0Gt-31" value="11" style="rounded=0;whiteSpace=wrap;html=1;" vertex="1" parent="eeNMLIX59yPxrYkGyPtQ-1">
          <mxGeometry x="650" y="280" width="40" height="40" as="geometry" />
        </mxCell>
        <mxCell id="lGnFqvOrJ4ilXYLma0Gt-32" value="12" style="rounded=0;whiteSpace=wrap;html=1;" vertex="1" parent="eeNMLIX59yPxrYkGyPtQ-1">
          <mxGeometry x="690" y="280" width="40" height="40" as="geometry" />
        </mxCell>
        <mxCell id="lGnFqvOrJ4ilXYLma0Gt-33" value="8" style="rounded=0;whiteSpace=wrap;html=1;" vertex="1" parent="eeNMLIX59yPxrYkGyPtQ-1">
          <mxGeometry x="520" y="200" width="40" height="40" as="geometry" />
        </mxCell>
        <mxCell id="lGnFqvOrJ4ilXYLma0Gt-34" value="10" style="rounded=0;whiteSpace=wrap;html=1;" vertex="1" parent="eeNMLIX59yPxrYkGyPtQ-1">
          <mxGeometry x="560" y="200" width="40" height="40" as="geometry" />
        </mxCell>
        <mxCell id="lGnFqvOrJ4ilXYLma0Gt-35" value="11" style="rounded=0;whiteSpace=wrap;html=1;" vertex="1" parent="eeNMLIX59yPxrYkGyPtQ-1">
          <mxGeometry x="700" y="200" width="40" height="40" as="geometry" />
        </mxCell>
        <mxCell id="lGnFqvOrJ4ilXYLma0Gt-36" value="13" style="rounded=0;whiteSpace=wrap;html=1;" vertex="1" parent="eeNMLIX59yPxrYkGyPtQ-1">
          <mxGeometry x="740" y="200" width="40" height="40" as="geometry" />
        </mxCell>
        <mxCell id="lGnFqvOrJ4ilXYLma0Gt-37" value="" style="endArrow=classic;html=1;exitX=0.5;exitY=1;exitDx=0;exitDy=0;entryX=0;entryY=0;entryDx=0;entryDy=0;strokeWidth=3;" edge="1" source="lGnFqvOrJ4ilXYLma0Gt-0" target="lGnFqvOrJ4ilXYLma0Gt-3" parent="eeNMLIX59yPxrYkGyPtQ-1">
          <mxGeometry width="50" height="50" relative="1" as="geometry">
            <mxPoint x="450" y="230" as="sourcePoint" />
            <mxPoint x="500" y="180" as="targetPoint" />
          </mxGeometry>
        </mxCell>
        <mxCell id="lGnFqvOrJ4ilXYLma0Gt-38" value="" style="endArrow=classic;html=1;exitX=0.5;exitY=1;exitDx=0;exitDy=0;entryX=1;entryY=0;entryDx=0;entryDy=0;strokeWidth=3;" edge="1" source="lGnFqvOrJ4ilXYLma0Gt-1" target="lGnFqvOrJ4ilXYLma0Gt-4" parent="eeNMLIX59yPxrYkGyPtQ-1">
          <mxGeometry width="50" height="50" relative="1" as="geometry">
            <mxPoint x="450" y="230" as="sourcePoint" />
            <mxPoint x="500" y="180" as="targetPoint" />
          </mxGeometry>
        </mxCell>
        <mxCell id="lGnFqvOrJ4ilXYLma0Gt-39" value="" style="endArrow=classic;html=1;entryX=0;entryY=0;entryDx=0;entryDy=0;" edge="1" target="lGnFqvOrJ4ilXYLma0Gt-7" parent="eeNMLIX59yPxrYkGyPtQ-1">
          <mxGeometry width="50" height="50" relative="1" as="geometry">
            <mxPoint x="250" y="160" as="sourcePoint" />
            <mxPoint x="500" y="180" as="targetPoint" />
          </mxGeometry>
        </mxCell>
        <mxCell id="lGnFqvOrJ4ilXYLma0Gt-40" value="" style="endArrow=classic;html=1;exitX=0.5;exitY=1;exitDx=0;exitDy=0;entryX=1;entryY=0;entryDx=0;entryDy=0;strokeWidth=3;" edge="1" source="lGnFqvOrJ4ilXYLma0Gt-3" target="lGnFqvOrJ4ilXYLma0Gt-8" parent="eeNMLIX59yPxrYkGyPtQ-1">
          <mxGeometry width="50" height="50" relative="1" as="geometry">
            <mxPoint x="450" y="230" as="sourcePoint" />
            <mxPoint x="500" y="180" as="targetPoint" />
          </mxGeometry>
        </mxCell>
        <mxCell id="lGnFqvOrJ4ilXYLma0Gt-41" value="" style="endArrow=classic;html=1;exitX=0.5;exitY=1;exitDx=0;exitDy=0;entryX=0;entryY=0;entryDx=0;entryDy=0;strokeWidth=3;" edge="1" source="lGnFqvOrJ4ilXYLma0Gt-4" target="lGnFqvOrJ4ilXYLma0Gt-34" parent="eeNMLIX59yPxrYkGyPtQ-1">
          <mxGeometry width="50" height="50" relative="1" as="geometry">
            <mxPoint x="450" y="230" as="sourcePoint" />
            <mxPoint x="500" y="180" as="targetPoint" />
          </mxGeometry>
        </mxCell>
        <mxCell id="lGnFqvOrJ4ilXYLma0Gt-42" value="" style="endArrow=classic;html=1;exitX=0.5;exitY=1;exitDx=0;exitDy=0;entryX=1;entryY=0;entryDx=0;entryDy=0;" edge="1" source="lGnFqvOrJ4ilXYLma0Gt-5" target="lGnFqvOrJ4ilXYLma0Gt-35" parent="eeNMLIX59yPxrYkGyPtQ-1">
          <mxGeometry width="50" height="50" relative="1" as="geometry">
            <mxPoint x="450" y="230" as="sourcePoint" />
            <mxPoint x="500" y="180" as="targetPoint" />
          </mxGeometry>
        </mxCell>
        <mxCell id="lGnFqvOrJ4ilXYLma0Gt-43" value="" style="endArrow=classic;html=1;entryX=1;entryY=0;entryDx=0;entryDy=0;" edge="1" target="lGnFqvOrJ4ilXYLma0Gt-10" parent="eeNMLIX59yPxrYkGyPtQ-1">
          <mxGeometry width="50" height="50" relative="1" as="geometry">
            <mxPoint x="130" y="240" as="sourcePoint" />
            <mxPoint x="500" y="180" as="targetPoint" />
          </mxGeometry>
        </mxCell>
        <mxCell id="lGnFqvOrJ4ilXYLma0Gt-44" value="" style="endArrow=classic;html=1;exitX=0.5;exitY=1;exitDx=0;exitDy=0;entryX=0;entryY=0;entryDx=0;entryDy=0;" edge="1" source="lGnFqvOrJ4ilXYLma0Gt-7" target="lGnFqvOrJ4ilXYLma0Gt-13" parent="eeNMLIX59yPxrYkGyPtQ-1">
          <mxGeometry width="50" height="50" relative="1" as="geometry">
            <mxPoint x="450" y="230" as="sourcePoint" />
            <mxPoint x="500" y="180" as="targetPoint" />
          </mxGeometry>
        </mxCell>
        <mxCell id="lGnFqvOrJ4ilXYLma0Gt-45" value="" style="endArrow=classic;html=1;exitX=0.5;exitY=1;exitDx=0;exitDy=0;entryX=0.5;entryY=0;entryDx=0;entryDy=0;" edge="1" source="lGnFqvOrJ4ilXYLma0Gt-8" target="lGnFqvOrJ4ilXYLma0Gt-20" parent="eeNMLIX59yPxrYkGyPtQ-1">
          <mxGeometry width="50" height="50" relative="1" as="geometry">
            <mxPoint x="450" y="230" as="sourcePoint" />
            <mxPoint x="500" y="180" as="targetPoint" />
          </mxGeometry>
        </mxCell>
        <mxCell id="lGnFqvOrJ4ilXYLma0Gt-46" value="" style="endArrow=classic;html=1;exitX=0.5;exitY=1;exitDx=0;exitDy=0;entryX=0.5;entryY=0;entryDx=0;entryDy=0;" edge="1" source="lGnFqvOrJ4ilXYLma0Gt-9" target="lGnFqvOrJ4ilXYLma0Gt-22" parent="eeNMLIX59yPxrYkGyPtQ-1">
          <mxGeometry width="50" height="50" relative="1" as="geometry">
            <mxPoint x="450" y="230" as="sourcePoint" />
            <mxPoint x="500" y="180" as="targetPoint" />
          </mxGeometry>
        </mxCell>
        <mxCell id="lGnFqvOrJ4ilXYLma0Gt-47" value="" style="endArrow=classic;html=1;exitX=0.5;exitY=1;exitDx=0;exitDy=0;entryX=1;entryY=0;entryDx=0;entryDy=0;strokeWidth=3;" edge="1" source="lGnFqvOrJ4ilXYLma0Gt-33" target="lGnFqvOrJ4ilXYLma0Gt-29" parent="eeNMLIX59yPxrYkGyPtQ-1">
          <mxGeometry width="50" height="50" relative="1" as="geometry">
            <mxPoint x="450" y="230" as="sourcePoint" />
            <mxPoint x="500" y="180" as="targetPoint" />
          </mxGeometry>
        </mxCell>
        <mxCell id="lGnFqvOrJ4ilXYLma0Gt-48" value="" style="endArrow=classic;html=1;exitX=0.5;exitY=1;exitDx=0;exitDy=0;entryX=0.5;entryY=0;entryDx=0;entryDy=0;" edge="1" source="lGnFqvOrJ4ilXYLma0Gt-34" target="lGnFqvOrJ4ilXYLma0Gt-25" parent="eeNMLIX59yPxrYkGyPtQ-1">
          <mxGeometry width="50" height="50" relative="1" as="geometry">
            <mxPoint x="450" y="230" as="sourcePoint" />
            <mxPoint x="500" y="180" as="targetPoint" />
          </mxGeometry>
        </mxCell>
        <mxCell id="lGnFqvOrJ4ilXYLma0Gt-49" value="" style="endArrow=classic;html=1;exitX=0.5;exitY=1;exitDx=0;exitDy=0;entryX=0;entryY=0;entryDx=0;entryDy=0;" edge="1" source="lGnFqvOrJ4ilXYLma0Gt-35" target="lGnFqvOrJ4ilXYLma0Gt-32" parent="eeNMLIX59yPxrYkGyPtQ-1">
          <mxGeometry width="50" height="50" relative="1" as="geometry">
            <mxPoint x="450" y="230" as="sourcePoint" />
            <mxPoint x="500" y="180" as="targetPoint" />
          </mxGeometry>
        </mxCell>
        <mxCell id="lGnFqvOrJ4ilXYLma0Gt-50" value="" style="endArrow=classic;html=1;exitX=0.5;exitY=1;exitDx=0;exitDy=0;entryX=0.5;entryY=0;entryDx=0;entryDy=0;" edge="1" source="lGnFqvOrJ4ilXYLma0Gt-36" target="lGnFqvOrJ4ilXYLma0Gt-28" parent="eeNMLIX59yPxrYkGyPtQ-1">
          <mxGeometry width="50" height="50" relative="1" as="geometry">
            <mxPoint x="450" y="230" as="sourcePoint" />
            <mxPoint x="500" y="180" as="targetPoint" />
          </mxGeometry>
        </mxCell>
        <mxCell id="lGnFqvOrJ4ilXYLma0Gt-51" value="&amp;nbsp; &amp;nbsp; &amp;nbsp;" style="text;html=1;strokeColor=none;fillColor=none;align=center;verticalAlign=middle;whiteSpace=wrap;rounded=0;" vertex="1" parent="eeNMLIX59yPxrYkGyPtQ-1">
          <mxGeometry x="40" y="430" width="40" height="20" as="geometry" />
        </mxCell>
        <mxCell id="lGnFqvOrJ4ilXYLma0Gt-52" value="" style="endArrow=classic;html=1;exitX=0.5;exitY=1;exitDx=0;exitDy=0;" edge="1" source="lGnFqvOrJ4ilXYLma0Gt-10" target="lGnFqvOrJ4ilXYLma0Gt-14" parent="eeNMLIX59yPxrYkGyPtQ-1">
          <mxGeometry width="50" height="50" relative="1" as="geometry">
            <mxPoint x="450" y="280" as="sourcePoint" />
            <mxPoint x="500" y="230" as="targetPoint" />
          </mxGeometry>
        </mxCell>
        <mxCell id="lGnFqvOrJ4ilXYLma0Gt-53" value="" style="endArrow=classic;html=1;exitX=0.5;exitY=1;exitDx=0;exitDy=0;" edge="1" source="lGnFqvOrJ4ilXYLma0Gt-11" target="lGnFqvOrJ4ilXYLma0Gt-15" parent="eeNMLIX59yPxrYkGyPtQ-1">
          <mxGeometry width="50" height="50" relative="1" as="geometry">
            <mxPoint x="450" y="280" as="sourcePoint" />
            <mxPoint x="500" y="230" as="targetPoint" />
          </mxGeometry>
        </mxCell>
        <mxCell id="lGnFqvOrJ4ilXYLma0Gt-54" value="" style="endArrow=classic;html=1;exitX=0.5;exitY=1;exitDx=0;exitDy=0;entryX=0.5;entryY=0;entryDx=0;entryDy=0;" edge="1" source="lGnFqvOrJ4ilXYLma0Gt-12" target="lGnFqvOrJ4ilXYLma0Gt-16" parent="eeNMLIX59yPxrYkGyPtQ-1">
          <mxGeometry width="50" height="50" relative="1" as="geometry">
            <mxPoint x="450" y="280" as="sourcePoint" />
            <mxPoint x="500" y="230" as="targetPoint" />
          </mxGeometry>
        </mxCell>
        <mxCell id="lGnFqvOrJ4ilXYLma0Gt-55" value="" style="endArrow=classic;html=1;exitX=0.5;exitY=1;exitDx=0;exitDy=0;entryX=0.5;entryY=0;entryDx=0;entryDy=0;" edge="1" source="lGnFqvOrJ4ilXYLma0Gt-13" target="lGnFqvOrJ4ilXYLma0Gt-17" parent="eeNMLIX59yPxrYkGyPtQ-1">
          <mxGeometry width="50" height="50" relative="1" as="geometry">
            <mxPoint x="450" y="280" as="sourcePoint" />
            <mxPoint x="500" y="230" as="targetPoint" />
          </mxGeometry>
        </mxCell>
        <mxCell id="lGnFqvOrJ4ilXYLma0Gt-56" value="" style="endArrow=classic;html=1;exitX=0.5;exitY=1;exitDx=0;exitDy=0;entryX=0.5;entryY=0;entryDx=0;entryDy=0;" edge="1" source="lGnFqvOrJ4ilXYLma0Gt-20" target="lGnFqvOrJ4ilXYLma0Gt-18" parent="eeNMLIX59yPxrYkGyPtQ-1">
          <mxGeometry width="50" height="50" relative="1" as="geometry">
            <mxPoint x="450" y="280" as="sourcePoint" />
            <mxPoint x="500" y="230" as="targetPoint" />
          </mxGeometry>
        </mxCell>
        <mxCell id="lGnFqvOrJ4ilXYLma0Gt-57" value="" style="endArrow=classic;html=1;exitX=0.5;exitY=1;exitDx=0;exitDy=0;entryX=0.5;entryY=0;entryDx=0;entryDy=0;" edge="1" source="lGnFqvOrJ4ilXYLma0Gt-21" target="lGnFqvOrJ4ilXYLma0Gt-19" parent="eeNMLIX59yPxrYkGyPtQ-1">
          <mxGeometry width="50" height="50" relative="1" as="geometry">
            <mxPoint x="450" y="280" as="sourcePoint" />
            <mxPoint x="500" y="230" as="targetPoint" />
          </mxGeometry>
        </mxCell>
        <mxCell id="lGnFqvOrJ4ilXYLma0Gt-58" value="" style="endArrow=classic;html=1;exitX=0.5;exitY=1;exitDx=0;exitDy=0;entryX=0.5;entryY=0;entryDx=0;entryDy=0;strokeWidth=3;" edge="1" source="lGnFqvOrJ4ilXYLma0Gt-29" target="lGnFqvOrJ4ilXYLma0Gt-23" parent="eeNMLIX59yPxrYkGyPtQ-1">
          <mxGeometry width="50" height="50" relative="1" as="geometry">
            <mxPoint x="450" y="280" as="sourcePoint" />
            <mxPoint x="500" y="230" as="targetPoint" />
          </mxGeometry>
        </mxCell>
        <mxCell id="lGnFqvOrJ4ilXYLma0Gt-59" value="" style="endArrow=classic;html=1;exitX=0.5;exitY=1;exitDx=0;exitDy=0;entryX=0.5;entryY=0;entryDx=0;entryDy=0;" edge="1" source="lGnFqvOrJ4ilXYLma0Gt-30" target="lGnFqvOrJ4ilXYLma0Gt-24" parent="eeNMLIX59yPxrYkGyPtQ-1">
          <mxGeometry width="50" height="50" relative="1" as="geometry">
            <mxPoint x="450" y="280" as="sourcePoint" />
            <mxPoint x="500" y="230" as="targetPoint" />
          </mxGeometry>
        </mxCell>
        <mxCell id="lGnFqvOrJ4ilXYLma0Gt-60" value="" style="endArrow=classic;html=1;exitX=0.5;exitY=1;exitDx=0;exitDy=0;entryX=0.5;entryY=0;entryDx=0;entryDy=0;" edge="1" source="lGnFqvOrJ4ilXYLma0Gt-31" target="lGnFqvOrJ4ilXYLma0Gt-26" parent="eeNMLIX59yPxrYkGyPtQ-1">
          <mxGeometry width="50" height="50" relative="1" as="geometry">
            <mxPoint x="450" y="280" as="sourcePoint" />
            <mxPoint x="500" y="230" as="targetPoint" />
          </mxGeometry>
        </mxCell>
        <mxCell id="lGnFqvOrJ4ilXYLma0Gt-61" value="" style="endArrow=classic;html=1;exitX=0.5;exitY=1;exitDx=0;exitDy=0;entryX=0.5;entryY=0;entryDx=0;entryDy=0;" edge="1" source="lGnFqvOrJ4ilXYLma0Gt-32" target="lGnFqvOrJ4ilXYLma0Gt-27" parent="eeNMLIX59yPxrYkGyPtQ-1">
          <mxGeometry width="50" height="50" relative="1" as="geometry">
            <mxPoint x="450" y="280" as="sourcePoint" />
            <mxPoint x="500" y="230" as="targetPoint" />
          </mxGeometry>
        </mxCell>
        <mxCell id="lGnFqvOrJ4ilXYLma0Gt-62" value="区间查询 left:5 right:8 &lt;br&gt;根据左右子树的返回值,更新新对象并返回" style="text;html=1;align=center;verticalAlign=middle;resizable=0;points=[];autosize=1;" vertex="1" parent="eeNMLIX59yPxrYkGyPtQ-1">
          <mxGeometry x="350" y="10" width="230" height="30" as="geometry" />
        </mxCell>
        <mxCell id="lGnFqvOrJ4ilXYLma0Gt-63" value="5 &amp;lt;= (1+13)/2" style="text;html=1;align=center;verticalAlign=middle;resizable=0;points=[];autosize=1;" vertex="1" parent="eeNMLIX59yPxrYkGyPtQ-1">
          <mxGeometry x="340" y="100" width="90" height="20" as="geometry" />
        </mxCell>
        <mxCell id="lGnFqvOrJ4ilXYLma0Gt-64" value="8 &amp;gt; (1+13)/2" style="text;html=1;align=center;verticalAlign=middle;resizable=0;points=[];autosize=1;" vertex="1" parent="eeNMLIX59yPxrYkGyPtQ-1">
          <mxGeometry x="490" y="100" width="80" height="20" as="geometry" />
        </mxCell>
        <mxCell id="lGnFqvOrJ4ilXYLma0Gt-65" value="8 &amp;gt;= (1+7)/2" style="text;html=1;align=center;verticalAlign=middle;resizable=0;points=[];autosize=1;" vertex="1" parent="eeNMLIX59yPxrYkGyPtQ-1">
          <mxGeometry x="330" y="160" width="80" height="20" as="geometry" />
        </mxCell>
        <mxCell id="lGnFqvOrJ4ilXYLma0Gt-66" value="5&amp;gt;=5 &amp;amp;&amp;amp; 7 &amp;lt;=8&lt;br&gt;返回当前节点" style="text;html=1;align=center;verticalAlign=middle;resizable=0;points=[];autosize=1;" vertex="1" parent="eeNMLIX59yPxrYkGyPtQ-1">
          <mxGeometry x="414" y="205" width="100" height="30" as="geometry" />
        </mxCell>
        <mxCell id="lGnFqvOrJ4ilXYLma0Gt-68" value="5 &amp;lt;= (8+13)/2" style="text;html=1;align=center;verticalAlign=middle;resizable=0;points=[];autosize=1;" vertex="1" parent="eeNMLIX59yPxrYkGyPtQ-1">
          <mxGeometry x="515" y="160" width="90" height="20" as="geometry" />
        </mxCell>
        <mxCell id="lGnFqvOrJ4ilXYLma0Gt-71" value="5 &amp;lt;= (8+10)/2" style="text;html=1;align=center;verticalAlign=middle;resizable=0;points=[];autosize=1;" vertex="1" parent="eeNMLIX59yPxrYkGyPtQ-1">
          <mxGeometry x="430" y="250" width="90" height="20" as="geometry" />
        </mxCell>
        <mxCell id="lGnFqvOrJ4ilXYLma0Gt-72" value="5 &amp;lt;= (8+9)/2" style="text;html=1;align=center;verticalAlign=middle;resizable=0;points=[];autosize=1;" vertex="1" parent="eeNMLIX59yPxrYkGyPtQ-1">
          <mxGeometry x="395" y="330" width="80" height="20" as="geometry" />
        </mxCell>
        <mxCell id="lGnFqvOrJ4ilXYLma0Gt-73" value="8&amp;gt;=5 &amp;amp;&amp;amp; 8 &amp;lt;=8&lt;br&gt;返回当前节点" style="text;html=1;align=center;verticalAlign=middle;resizable=0;points=[];autosize=1;" vertex="1" parent="eeNMLIX59yPxrYkGyPtQ-1">
          <mxGeometry x="425" y="410" width="100" height="30" as="geometry" />
        </mxCell>
      </root>
    </mxGraphModel>
  </diagram>
  <diagram name="区间更新" id="6Zm2sM44GMsvaXcYXjeK">
    <mxGraphModel dx="1024" dy="601" grid="1" gridSize="10" guides="1" tooltips="1" connect="1" arrows="1" fold="1" page="1" pageScale="1" pageWidth="827" pageHeight="1169" math="0" shadow="0">
      <root>
        <mxCell id="VSLU637oVwMD4yDeLLhj-0" />
        <mxCell id="VSLU637oVwMD4yDeLLhj-1" parent="VSLU637oVwMD4yDeLLhj-0" />
        <mxCell id="uW8AKzmMj6zBrapIcuCp-0" value="1" style="rounded=0;whiteSpace=wrap;html=1;" vertex="1" parent="VSLU637oVwMD4yDeLLhj-1">
          <mxGeometry x="420" y="40" width="40" height="40" as="geometry" />
        </mxCell>
        <mxCell id="uW8AKzmMj6zBrapIcuCp-1" value="13" style="rounded=0;whiteSpace=wrap;html=1;" vertex="1" parent="VSLU637oVwMD4yDeLLhj-1">
          <mxGeometry x="460" y="40" width="40" height="40" as="geometry" />
        </mxCell>
        <mxCell id="uW8AKzmMj6zBrapIcuCp-2" value="1" style="rounded=0;whiteSpace=wrap;html=1;" vertex="1" parent="VSLU637oVwMD4yDeLLhj-1">
          <mxGeometry x="230" y="120" width="40" height="40" as="geometry" />
        </mxCell>
        <mxCell id="uW8AKzmMj6zBrapIcuCp-3" value="7" style="rounded=0;whiteSpace=wrap;html=1;" vertex="1" parent="VSLU637oVwMD4yDeLLhj-1">
          <mxGeometry x="270" y="120" width="40" height="40" as="geometry" />
        </mxCell>
        <mxCell id="uW8AKzmMj6zBrapIcuCp-4" value="8" style="rounded=0;whiteSpace=wrap;html=1;" vertex="1" parent="VSLU637oVwMD4yDeLLhj-1">
          <mxGeometry x="610" y="120" width="40" height="40" as="geometry" />
        </mxCell>
        <mxCell id="uW8AKzmMj6zBrapIcuCp-5" value="13" style="rounded=0;whiteSpace=wrap;html=1;" vertex="1" parent="VSLU637oVwMD4yDeLLhj-1">
          <mxGeometry x="650" y="120" width="40" height="40" as="geometry" />
        </mxCell>
        <mxCell id="uW8AKzmMj6zBrapIcuCp-6" value="1" style="rounded=0;whiteSpace=wrap;html=1;" vertex="1" parent="VSLU637oVwMD4yDeLLhj-1">
          <mxGeometry x="110" y="200" width="40" height="40" as="geometry" />
        </mxCell>
        <mxCell id="uW8AKzmMj6zBrapIcuCp-7" value="4" style="rounded=0;whiteSpace=wrap;html=1;" vertex="1" parent="VSLU637oVwMD4yDeLLhj-1">
          <mxGeometry x="150" y="200" width="40" height="40" as="geometry" />
        </mxCell>
        <mxCell id="uW8AKzmMj6zBrapIcuCp-8" value="5" style="rounded=0;whiteSpace=wrap;html=1;" vertex="1" parent="VSLU637oVwMD4yDeLLhj-1">
          <mxGeometry x="340" y="200" width="40" height="40" as="geometry" />
        </mxCell>
        <mxCell id="uW8AKzmMj6zBrapIcuCp-9" value="7" style="rounded=0;whiteSpace=wrap;html=1;" vertex="1" parent="VSLU637oVwMD4yDeLLhj-1">
          <mxGeometry x="380" y="200" width="40" height="40" as="geometry" />
        </mxCell>
        <mxCell id="uW8AKzmMj6zBrapIcuCp-10" value="1" style="rounded=0;whiteSpace=wrap;html=1;" vertex="1" parent="VSLU637oVwMD4yDeLLhj-1">
          <mxGeometry x="50" y="280" width="40" height="40" as="geometry" />
        </mxCell>
        <mxCell id="uW8AKzmMj6zBrapIcuCp-11" value="2" style="rounded=0;whiteSpace=wrap;html=1;" vertex="1" parent="VSLU637oVwMD4yDeLLhj-1">
          <mxGeometry x="90" y="280" width="40" height="40" as="geometry" />
        </mxCell>
        <mxCell id="uW8AKzmMj6zBrapIcuCp-12" value="3" style="rounded=0;whiteSpace=wrap;html=1;" vertex="1" parent="VSLU637oVwMD4yDeLLhj-1">
          <mxGeometry x="170" y="280" width="40" height="40" as="geometry" />
        </mxCell>
        <mxCell id="uW8AKzmMj6zBrapIcuCp-13" value="4" style="rounded=0;whiteSpace=wrap;html=1;" vertex="1" parent="VSLU637oVwMD4yDeLLhj-1">
          <mxGeometry x="210" y="280" width="40" height="40" as="geometry" />
        </mxCell>
        <mxCell id="uW8AKzmMj6zBrapIcuCp-14" value="1" style="rounded=0;whiteSpace=wrap;html=1;" vertex="1" parent="VSLU637oVwMD4yDeLLhj-1">
          <mxGeometry x="40" y="360" width="40" height="40" as="geometry" />
        </mxCell>
        <mxCell id="uW8AKzmMj6zBrapIcuCp-15" value="2" style="rounded=0;whiteSpace=wrap;html=1;" vertex="1" parent="VSLU637oVwMD4yDeLLhj-1">
          <mxGeometry x="100" y="360" width="40" height="40" as="geometry" />
        </mxCell>
        <mxCell id="uW8AKzmMj6zBrapIcuCp-16" value="3" style="rounded=0;whiteSpace=wrap;html=1;" vertex="1" parent="VSLU637oVwMD4yDeLLhj-1">
          <mxGeometry x="160" y="360" width="40" height="40" as="geometry" />
        </mxCell>
        <mxCell id="uW8AKzmMj6zBrapIcuCp-17" value="4" style="rounded=0;whiteSpace=wrap;html=1;" vertex="1" parent="VSLU637oVwMD4yDeLLhj-1">
          <mxGeometry x="220" y="360" width="40" height="40" as="geometry" />
        </mxCell>
        <mxCell id="uW8AKzmMj6zBrapIcuCp-18" value="5" style="rounded=0;whiteSpace=wrap;html=1;" vertex="1" parent="VSLU637oVwMD4yDeLLhj-1">
          <mxGeometry x="280" y="360" width="40" height="40" as="geometry" />
        </mxCell>
        <mxCell id="uW8AKzmMj6zBrapIcuCp-19" value="6" style="rounded=0;whiteSpace=wrap;html=1;" vertex="1" parent="VSLU637oVwMD4yDeLLhj-1">
          <mxGeometry x="340" y="360" width="40" height="40" as="geometry" />
        </mxCell>
        <mxCell id="uW8AKzmMj6zBrapIcuCp-20" value="5" style="rounded=0;whiteSpace=wrap;html=1;" vertex="1" parent="VSLU637oVwMD4yDeLLhj-1">
          <mxGeometry x="290" y="280" width="40" height="40" as="geometry" />
        </mxCell>
        <mxCell id="uW8AKzmMj6zBrapIcuCp-21" value="6" style="rounded=0;whiteSpace=wrap;html=1;" vertex="1" parent="VSLU637oVwMD4yDeLLhj-1">
          <mxGeometry x="330" y="280" width="40" height="40" as="geometry" />
        </mxCell>
        <mxCell id="uW8AKzmMj6zBrapIcuCp-22" value="7" style="rounded=0;whiteSpace=wrap;html=1;" vertex="1" parent="VSLU637oVwMD4yDeLLhj-1">
          <mxGeometry x="400" y="280" width="40" height="40" as="geometry" />
        </mxCell>
        <mxCell id="uW8AKzmMj6zBrapIcuCp-23" value="8" style="rounded=0;whiteSpace=wrap;html=1;" vertex="1" parent="VSLU637oVwMD4yDeLLhj-1">
          <mxGeometry x="460" y="360" width="40" height="40" as="geometry" />
        </mxCell>
        <mxCell id="uW8AKzmMj6zBrapIcuCp-24" value="9" style="rounded=0;whiteSpace=wrap;html=1;" vertex="1" parent="VSLU637oVwMD4yDeLLhj-1">
          <mxGeometry x="520" y="360" width="40" height="40" as="geometry" />
        </mxCell>
        <mxCell id="uW8AKzmMj6zBrapIcuCp-25" value="10" style="rounded=0;whiteSpace=wrap;html=1;" vertex="1" parent="VSLU637oVwMD4yDeLLhj-1">
          <mxGeometry x="580" y="280" width="40" height="40" as="geometry" />
        </mxCell>
        <mxCell id="uW8AKzmMj6zBrapIcuCp-26" value="11" style="rounded=0;whiteSpace=wrap;html=1;" vertex="1" parent="VSLU637oVwMD4yDeLLhj-1">
          <mxGeometry x="640" y="360" width="40" height="40" as="geometry" />
        </mxCell>
        <mxCell id="uW8AKzmMj6zBrapIcuCp-27" value="12" style="rounded=0;whiteSpace=wrap;html=1;" vertex="1" parent="VSLU637oVwMD4yDeLLhj-1">
          <mxGeometry x="700" y="360" width="40" height="40" as="geometry" />
        </mxCell>
        <mxCell id="uW8AKzmMj6zBrapIcuCp-28" value="13" style="rounded=0;whiteSpace=wrap;html=1;" vertex="1" parent="VSLU637oVwMD4yDeLLhj-1">
          <mxGeometry x="760" y="280" width="40" height="40" as="geometry" />
        </mxCell>
        <mxCell id="uW8AKzmMj6zBrapIcuCp-29" value="8" style="rounded=0;whiteSpace=wrap;html=1;" vertex="1" parent="VSLU637oVwMD4yDeLLhj-1">
          <mxGeometry x="470" y="280" width="40" height="40" as="geometry" />
        </mxCell>
        <mxCell id="uW8AKzmMj6zBrapIcuCp-30" value="9" style="rounded=0;whiteSpace=wrap;html=1;" vertex="1" parent="VSLU637oVwMD4yDeLLhj-1">
          <mxGeometry x="510" y="280" width="40" height="40" as="geometry" />
        </mxCell>
        <mxCell id="uW8AKzmMj6zBrapIcuCp-31" value="11" style="rounded=0;whiteSpace=wrap;html=1;" vertex="1" parent="VSLU637oVwMD4yDeLLhj-1">
          <mxGeometry x="650" y="280" width="40" height="40" as="geometry" />
        </mxCell>
        <mxCell id="uW8AKzmMj6zBrapIcuCp-32" value="12" style="rounded=0;whiteSpace=wrap;html=1;" vertex="1" parent="VSLU637oVwMD4yDeLLhj-1">
          <mxGeometry x="690" y="280" width="40" height="40" as="geometry" />
        </mxCell>
        <mxCell id="uW8AKzmMj6zBrapIcuCp-33" value="8" style="rounded=0;whiteSpace=wrap;html=1;" vertex="1" parent="VSLU637oVwMD4yDeLLhj-1">
          <mxGeometry x="520" y="200" width="40" height="40" as="geometry" />
        </mxCell>
        <mxCell id="uW8AKzmMj6zBrapIcuCp-34" value="10" style="rounded=0;whiteSpace=wrap;html=1;" vertex="1" parent="VSLU637oVwMD4yDeLLhj-1">
          <mxGeometry x="560" y="200" width="40" height="40" as="geometry" />
        </mxCell>
        <mxCell id="uW8AKzmMj6zBrapIcuCp-35" value="11" style="rounded=0;whiteSpace=wrap;html=1;" vertex="1" parent="VSLU637oVwMD4yDeLLhj-1">
          <mxGeometry x="700" y="200" width="40" height="40" as="geometry" />
        </mxCell>
        <mxCell id="uW8AKzmMj6zBrapIcuCp-36" value="13" style="rounded=0;whiteSpace=wrap;html=1;" vertex="1" parent="VSLU637oVwMD4yDeLLhj-1">
          <mxGeometry x="740" y="200" width="40" height="40" as="geometry" />
        </mxCell>
        <mxCell id="uW8AKzmMj6zBrapIcuCp-37" value="" style="endArrow=classic;html=1;exitX=0.5;exitY=1;exitDx=0;exitDy=0;entryX=0;entryY=0;entryDx=0;entryDy=0;strokeWidth=3;" edge="1" parent="VSLU637oVwMD4yDeLLhj-1" source="uW8AKzmMj6zBrapIcuCp-0" target="uW8AKzmMj6zBrapIcuCp-3">
          <mxGeometry width="50" height="50" relative="1" as="geometry">
            <mxPoint x="450" y="230" as="sourcePoint" />
            <mxPoint x="500" y="180" as="targetPoint" />
          </mxGeometry>
        </mxCell>
        <mxCell id="uW8AKzmMj6zBrapIcuCp-38" value="" style="endArrow=classic;html=1;exitX=0.5;exitY=1;exitDx=0;exitDy=0;entryX=1;entryY=0;entryDx=0;entryDy=0;strokeWidth=3;" edge="1" parent="VSLU637oVwMD4yDeLLhj-1" source="uW8AKzmMj6zBrapIcuCp-1" target="uW8AKzmMj6zBrapIcuCp-4">
          <mxGeometry width="50" height="50" relative="1" as="geometry">
            <mxPoint x="450" y="230" as="sourcePoint" />
            <mxPoint x="500" y="180" as="targetPoint" />
          </mxGeometry>
        </mxCell>
        <mxCell id="uW8AKzmMj6zBrapIcuCp-39" value="" style="endArrow=classic;html=1;entryX=0;entryY=0;entryDx=0;entryDy=0;strokeWidth=3;" edge="1" parent="VSLU637oVwMD4yDeLLhj-1" target="uW8AKzmMj6zBrapIcuCp-7">
          <mxGeometry width="50" height="50" relative="1" as="geometry">
            <mxPoint x="250" y="160" as="sourcePoint" />
            <mxPoint x="500" y="180" as="targetPoint" />
          </mxGeometry>
        </mxCell>
        <mxCell id="uW8AKzmMj6zBrapIcuCp-40" value="" style="endArrow=classic;html=1;exitX=0.5;exitY=1;exitDx=0;exitDy=0;entryX=1;entryY=0;entryDx=0;entryDy=0;strokeWidth=3;" edge="1" parent="VSLU637oVwMD4yDeLLhj-1" source="uW8AKzmMj6zBrapIcuCp-3" target="uW8AKzmMj6zBrapIcuCp-8">
          <mxGeometry width="50" height="50" relative="1" as="geometry">
            <mxPoint x="450" y="230" as="sourcePoint" />
            <mxPoint x="500" y="180" as="targetPoint" />
          </mxGeometry>
        </mxCell>
        <mxCell id="uW8AKzmMj6zBrapIcuCp-41" value="" style="endArrow=classic;html=1;exitX=0.5;exitY=1;exitDx=0;exitDy=0;entryX=0;entryY=0;entryDx=0;entryDy=0;strokeWidth=3;" edge="1" parent="VSLU637oVwMD4yDeLLhj-1" source="uW8AKzmMj6zBrapIcuCp-4" target="uW8AKzmMj6zBrapIcuCp-34">
          <mxGeometry width="50" height="50" relative="1" as="geometry">
            <mxPoint x="450" y="230" as="sourcePoint" />
            <mxPoint x="500" y="180" as="targetPoint" />
          </mxGeometry>
        </mxCell>
        <mxCell id="uW8AKzmMj6zBrapIcuCp-42" value="" style="endArrow=classic;html=1;exitX=0.5;exitY=1;exitDx=0;exitDy=0;entryX=1;entryY=0;entryDx=0;entryDy=0;" edge="1" parent="VSLU637oVwMD4yDeLLhj-1" source="uW8AKzmMj6zBrapIcuCp-5" target="uW8AKzmMj6zBrapIcuCp-35">
          <mxGeometry width="50" height="50" relative="1" as="geometry">
            <mxPoint x="450" y="230" as="sourcePoint" />
            <mxPoint x="500" y="180" as="targetPoint" />
          </mxGeometry>
        </mxCell>
        <mxCell id="uW8AKzmMj6zBrapIcuCp-43" value="" style="endArrow=classic;html=1;entryX=1;entryY=0;entryDx=0;entryDy=0;" edge="1" parent="VSLU637oVwMD4yDeLLhj-1" target="uW8AKzmMj6zBrapIcuCp-10">
          <mxGeometry width="50" height="50" relative="1" as="geometry">
            <mxPoint x="130" y="240" as="sourcePoint" />
            <mxPoint x="500" y="180" as="targetPoint" />
          </mxGeometry>
        </mxCell>
        <mxCell id="uW8AKzmMj6zBrapIcuCp-44" value="" style="endArrow=classic;html=1;exitX=0.5;exitY=1;exitDx=0;exitDy=0;entryX=0;entryY=0;entryDx=0;entryDy=0;strokeWidth=3;" edge="1" parent="VSLU637oVwMD4yDeLLhj-1" source="uW8AKzmMj6zBrapIcuCp-7" target="uW8AKzmMj6zBrapIcuCp-13">
          <mxGeometry width="50" height="50" relative="1" as="geometry">
            <mxPoint x="450" y="230" as="sourcePoint" />
            <mxPoint x="500" y="180" as="targetPoint" />
          </mxGeometry>
        </mxCell>
        <mxCell id="uW8AKzmMj6zBrapIcuCp-45" value="" style="endArrow=classic;html=1;exitX=0.5;exitY=1;exitDx=0;exitDy=0;entryX=0.5;entryY=0;entryDx=0;entryDy=0;" edge="1" parent="VSLU637oVwMD4yDeLLhj-1" source="uW8AKzmMj6zBrapIcuCp-8" target="uW8AKzmMj6zBrapIcuCp-20">
          <mxGeometry width="50" height="50" relative="1" as="geometry">
            <mxPoint x="450" y="230" as="sourcePoint" />
            <mxPoint x="500" y="180" as="targetPoint" />
          </mxGeometry>
        </mxCell>
        <mxCell id="uW8AKzmMj6zBrapIcuCp-46" value="" style="endArrow=classic;html=1;exitX=0.5;exitY=1;exitDx=0;exitDy=0;entryX=0.5;entryY=0;entryDx=0;entryDy=0;" edge="1" parent="VSLU637oVwMD4yDeLLhj-1" source="uW8AKzmMj6zBrapIcuCp-9" target="uW8AKzmMj6zBrapIcuCp-22">
          <mxGeometry width="50" height="50" relative="1" as="geometry">
            <mxPoint x="450" y="230" as="sourcePoint" />
            <mxPoint x="500" y="180" as="targetPoint" />
          </mxGeometry>
        </mxCell>
        <mxCell id="uW8AKzmMj6zBrapIcuCp-47" value="" style="endArrow=classic;html=1;exitX=0.5;exitY=1;exitDx=0;exitDy=0;entryX=1;entryY=0;entryDx=0;entryDy=0;strokeWidth=3;" edge="1" parent="VSLU637oVwMD4yDeLLhj-1" source="uW8AKzmMj6zBrapIcuCp-33" target="uW8AKzmMj6zBrapIcuCp-29">
          <mxGeometry width="50" height="50" relative="1" as="geometry">
            <mxPoint x="450" y="230" as="sourcePoint" />
            <mxPoint x="500" y="180" as="targetPoint" />
          </mxGeometry>
        </mxCell>
        <mxCell id="uW8AKzmMj6zBrapIcuCp-48" value="" style="endArrow=classic;html=1;exitX=0.5;exitY=1;exitDx=0;exitDy=0;entryX=0.5;entryY=0;entryDx=0;entryDy=0;" edge="1" parent="VSLU637oVwMD4yDeLLhj-1" source="uW8AKzmMj6zBrapIcuCp-34" target="uW8AKzmMj6zBrapIcuCp-25">
          <mxGeometry width="50" height="50" relative="1" as="geometry">
            <mxPoint x="450" y="230" as="sourcePoint" />
            <mxPoint x="500" y="180" as="targetPoint" />
          </mxGeometry>
        </mxCell>
        <mxCell id="uW8AKzmMj6zBrapIcuCp-49" value="" style="endArrow=classic;html=1;exitX=0.5;exitY=1;exitDx=0;exitDy=0;entryX=0;entryY=0;entryDx=0;entryDy=0;" edge="1" parent="VSLU637oVwMD4yDeLLhj-1" source="uW8AKzmMj6zBrapIcuCp-35" target="uW8AKzmMj6zBrapIcuCp-32">
          <mxGeometry width="50" height="50" relative="1" as="geometry">
            <mxPoint x="450" y="230" as="sourcePoint" />
            <mxPoint x="500" y="180" as="targetPoint" />
          </mxGeometry>
        </mxCell>
        <mxCell id="uW8AKzmMj6zBrapIcuCp-50" value="" style="endArrow=classic;html=1;exitX=0.5;exitY=1;exitDx=0;exitDy=0;entryX=0.5;entryY=0;entryDx=0;entryDy=0;" edge="1" parent="VSLU637oVwMD4yDeLLhj-1" source="uW8AKzmMj6zBrapIcuCp-36" target="uW8AKzmMj6zBrapIcuCp-28">
          <mxGeometry width="50" height="50" relative="1" as="geometry">
            <mxPoint x="450" y="230" as="sourcePoint" />
            <mxPoint x="500" y="180" as="targetPoint" />
          </mxGeometry>
        </mxCell>
        <mxCell id="uW8AKzmMj6zBrapIcuCp-51" value="&amp;nbsp; &amp;nbsp; &amp;nbsp;" style="text;html=1;strokeColor=none;fillColor=none;align=center;verticalAlign=middle;whiteSpace=wrap;rounded=0;" vertex="1" parent="VSLU637oVwMD4yDeLLhj-1">
          <mxGeometry x="40" y="430" width="40" height="20" as="geometry" />
        </mxCell>
        <mxCell id="uW8AKzmMj6zBrapIcuCp-52" value="" style="endArrow=classic;html=1;exitX=0.5;exitY=1;exitDx=0;exitDy=0;" edge="1" parent="VSLU637oVwMD4yDeLLhj-1" source="uW8AKzmMj6zBrapIcuCp-10" target="uW8AKzmMj6zBrapIcuCp-14">
          <mxGeometry width="50" height="50" relative="1" as="geometry">
            <mxPoint x="450" y="280" as="sourcePoint" />
            <mxPoint x="500" y="230" as="targetPoint" />
          </mxGeometry>
        </mxCell>
        <mxCell id="uW8AKzmMj6zBrapIcuCp-53" value="" style="endArrow=classic;html=1;exitX=0.5;exitY=1;exitDx=0;exitDy=0;" edge="1" parent="VSLU637oVwMD4yDeLLhj-1" source="uW8AKzmMj6zBrapIcuCp-11" target="uW8AKzmMj6zBrapIcuCp-15">
          <mxGeometry width="50" height="50" relative="1" as="geometry">
            <mxPoint x="450" y="280" as="sourcePoint" />
            <mxPoint x="500" y="230" as="targetPoint" />
          </mxGeometry>
        </mxCell>
        <mxCell id="uW8AKzmMj6zBrapIcuCp-54" value="" style="endArrow=classic;html=1;exitX=0.5;exitY=1;exitDx=0;exitDy=0;entryX=0.5;entryY=0;entryDx=0;entryDy=0;" edge="1" parent="VSLU637oVwMD4yDeLLhj-1" source="uW8AKzmMj6zBrapIcuCp-12" target="uW8AKzmMj6zBrapIcuCp-16">
          <mxGeometry width="50" height="50" relative="1" as="geometry">
            <mxPoint x="450" y="280" as="sourcePoint" />
            <mxPoint x="500" y="230" as="targetPoint" />
          </mxGeometry>
        </mxCell>
        <mxCell id="uW8AKzmMj6zBrapIcuCp-55" value="" style="endArrow=classic;html=1;exitX=0.5;exitY=1;exitDx=0;exitDy=0;entryX=0.5;entryY=0;entryDx=0;entryDy=0;strokeWidth=3;" edge="1" parent="VSLU637oVwMD4yDeLLhj-1" source="uW8AKzmMj6zBrapIcuCp-13" target="uW8AKzmMj6zBrapIcuCp-17">
          <mxGeometry width="50" height="50" relative="1" as="geometry">
            <mxPoint x="450" y="280" as="sourcePoint" />
            <mxPoint x="500" y="230" as="targetPoint" />
          </mxGeometry>
        </mxCell>
        <mxCell id="uW8AKzmMj6zBrapIcuCp-56" value="" style="endArrow=classic;html=1;exitX=0.5;exitY=1;exitDx=0;exitDy=0;entryX=0.5;entryY=0;entryDx=0;entryDy=0;" edge="1" parent="VSLU637oVwMD4yDeLLhj-1" source="uW8AKzmMj6zBrapIcuCp-20" target="uW8AKzmMj6zBrapIcuCp-18">
          <mxGeometry width="50" height="50" relative="1" as="geometry">
            <mxPoint x="450" y="280" as="sourcePoint" />
            <mxPoint x="500" y="230" as="targetPoint" />
          </mxGeometry>
        </mxCell>
        <mxCell id="uW8AKzmMj6zBrapIcuCp-57" value="" style="endArrow=classic;html=1;exitX=0.5;exitY=1;exitDx=0;exitDy=0;entryX=0.5;entryY=0;entryDx=0;entryDy=0;" edge="1" parent="VSLU637oVwMD4yDeLLhj-1" source="uW8AKzmMj6zBrapIcuCp-21" target="uW8AKzmMj6zBrapIcuCp-19">
          <mxGeometry width="50" height="50" relative="1" as="geometry">
            <mxPoint x="450" y="280" as="sourcePoint" />
            <mxPoint x="500" y="230" as="targetPoint" />
          </mxGeometry>
        </mxCell>
        <mxCell id="uW8AKzmMj6zBrapIcuCp-58" value="" style="endArrow=classic;html=1;exitX=0.5;exitY=1;exitDx=0;exitDy=0;entryX=0.5;entryY=0;entryDx=0;entryDy=0;" edge="1" parent="VSLU637oVwMD4yDeLLhj-1" source="uW8AKzmMj6zBrapIcuCp-29" target="uW8AKzmMj6zBrapIcuCp-23">
          <mxGeometry width="50" height="50" relative="1" as="geometry">
            <mxPoint x="450" y="280" as="sourcePoint" />
            <mxPoint x="500" y="230" as="targetPoint" />
          </mxGeometry>
        </mxCell>
        <mxCell id="uW8AKzmMj6zBrapIcuCp-59" value="" style="endArrow=classic;html=1;exitX=0.5;exitY=1;exitDx=0;exitDy=0;entryX=0.5;entryY=0;entryDx=0;entryDy=0;" edge="1" parent="VSLU637oVwMD4yDeLLhj-1" source="uW8AKzmMj6zBrapIcuCp-30" target="uW8AKzmMj6zBrapIcuCp-24">
          <mxGeometry width="50" height="50" relative="1" as="geometry">
            <mxPoint x="450" y="280" as="sourcePoint" />
            <mxPoint x="500" y="230" as="targetPoint" />
          </mxGeometry>
        </mxCell>
        <mxCell id="uW8AKzmMj6zBrapIcuCp-60" value="" style="endArrow=classic;html=1;exitX=0.5;exitY=1;exitDx=0;exitDy=0;entryX=0.5;entryY=0;entryDx=0;entryDy=0;" edge="1" parent="VSLU637oVwMD4yDeLLhj-1" source="uW8AKzmMj6zBrapIcuCp-31" target="uW8AKzmMj6zBrapIcuCp-26">
          <mxGeometry width="50" height="50" relative="1" as="geometry">
            <mxPoint x="450" y="280" as="sourcePoint" />
            <mxPoint x="500" y="230" as="targetPoint" />
          </mxGeometry>
        </mxCell>
        <mxCell id="uW8AKzmMj6zBrapIcuCp-61" value="" style="endArrow=classic;html=1;exitX=0.5;exitY=1;exitDx=0;exitDy=0;entryX=0.5;entryY=0;entryDx=0;entryDy=0;" edge="1" parent="VSLU637oVwMD4yDeLLhj-1" source="uW8AKzmMj6zBrapIcuCp-32" target="uW8AKzmMj6zBrapIcuCp-27">
          <mxGeometry width="50" height="50" relative="1" as="geometry">
            <mxPoint x="450" y="280" as="sourcePoint" />
            <mxPoint x="500" y="230" as="targetPoint" />
          </mxGeometry>
        </mxCell>
        <mxCell id="uW8AKzmMj6zBrapIcuCp-62" value="区间更新 left:4 right:9" style="text;html=1;align=center;verticalAlign=middle;resizable=0;points=[];autosize=1;" vertex="1" parent="VSLU637oVwMD4yDeLLhj-1">
          <mxGeometry x="400" y="20" width="130" height="20" as="geometry" />
        </mxCell>
        <mxCell id="uW8AKzmMj6zBrapIcuCp-63" value="打懒标" style="text;html=1;align=center;verticalAlign=middle;resizable=0;points=[];autosize=1;" vertex="1" parent="VSLU637oVwMD4yDeLLhj-1">
          <mxGeometry x="215" y="410" width="50" height="20" as="geometry" />
        </mxCell>
        <mxCell id="uW8AKzmMj6zBrapIcuCp-64" value="打懒标" style="text;html=1;align=center;verticalAlign=middle;resizable=0;points=[];autosize=1;" vertex="1" parent="VSLU637oVwMD4yDeLLhj-1">
          <mxGeometry x="420" y="210" width="50" height="20" as="geometry" />
        </mxCell>
        <mxCell id="uW8AKzmMj6zBrapIcuCp-65" value="打懒标" style="text;html=1;align=center;verticalAlign=middle;resizable=0;points=[];autosize=1;" vertex="1" parent="VSLU637oVwMD4yDeLLhj-1">
          <mxGeometry x="460" y="260" width="50" height="20" as="geometry" />
        </mxCell>
      </root>
    </mxGraphModel>
  </diagram>
</mxfile>
